<?xml version="1.0" encoding="utf-8"?>
<svg xmlns="http://www.w3.org/2000/svg" xmlns:xlink="http://www.w3.org/1999/xlink" width="600" height="400" viewBox="0 0 2400 1600">
<defs>
  <clipPath id="clip770">
    <rect x="0" y="0" width="2400" height="1600"/>
  </clipPath>
</defs>
<path clip-path="url(#clip770)" d="
M0 1600 L2400 1600 L2400 0 L0 0  Z
  " fill="#ffffff" fill-rule="evenodd" fill-opacity="1"/>
<defs>
  <clipPath id="clip771">
    <rect x="480" y="0" width="1681" height="1600"/>
  </clipPath>
</defs>
<path clip-path="url(#clip770)" d="
M149.191 1486.45 L2112.76 1486.45 L2112.76 47.2441 L149.191 47.2441  Z
  " fill="#ffffff" fill-rule="evenodd" fill-opacity="1"/>
<defs>
  <clipPath id="clip772">
    <rect x="149" y="47" width="1965" height="1440"/>
  </clipPath>
</defs>
<polyline clip-path="url(#clip772)" style="stroke:#000000; stroke-linecap:butt; stroke-linejoin:round; stroke-width:2; stroke-opacity:0.1; fill:none" points="
  390.005,1486.45 390.005,47.2441 
  "/>
<polyline clip-path="url(#clip772)" style="stroke:#000000; stroke-linecap:butt; stroke-linejoin:round; stroke-width:2; stroke-opacity:0.1; fill:none" points="
  760.489,1486.45 760.489,47.2441 
  "/>
<polyline clip-path="url(#clip772)" style="stroke:#000000; stroke-linecap:butt; stroke-linejoin:round; stroke-width:2; stroke-opacity:0.1; fill:none" points="
  1130.97,1486.45 1130.97,47.2441 
  "/>
<polyline clip-path="url(#clip772)" style="stroke:#000000; stroke-linecap:butt; stroke-linejoin:round; stroke-width:2; stroke-opacity:0.1; fill:none" points="
  1501.46,1486.45 1501.46,47.2441 
  "/>
<polyline clip-path="url(#clip772)" style="stroke:#000000; stroke-linecap:butt; stroke-linejoin:round; stroke-width:2; stroke-opacity:0.1; fill:none" points="
  1871.94,1486.45 1871.94,47.2441 
  "/>
<polyline clip-path="url(#clip770)" style="stroke:#000000; stroke-linecap:butt; stroke-linejoin:round; stroke-width:4; stroke-opacity:1; fill:none" points="
  149.191,1486.45 2112.76,1486.45 
  "/>
<polyline clip-path="url(#clip770)" style="stroke:#000000; stroke-linecap:butt; stroke-linejoin:round; stroke-width:4; stroke-opacity:1; fill:none" points="
  390.005,1486.45 390.005,1469.18 
  "/>
<polyline clip-path="url(#clip770)" style="stroke:#000000; stroke-linecap:butt; stroke-linejoin:round; stroke-width:4; stroke-opacity:1; fill:none" points="
  760.489,1486.45 760.489,1469.18 
  "/>
<polyline clip-path="url(#clip770)" style="stroke:#000000; stroke-linecap:butt; stroke-linejoin:round; stroke-width:4; stroke-opacity:1; fill:none" points="
  1130.97,1486.45 1130.97,1469.18 
  "/>
<polyline clip-path="url(#clip770)" style="stroke:#000000; stroke-linecap:butt; stroke-linejoin:round; stroke-width:4; stroke-opacity:1; fill:none" points="
  1501.46,1486.45 1501.46,1469.18 
  "/>
<polyline clip-path="url(#clip770)" style="stroke:#000000; stroke-linecap:butt; stroke-linejoin:round; stroke-width:4; stroke-opacity:1; fill:none" points="
  1871.94,1486.45 1871.94,1469.18 
  "/>
<path clip-path="url(#clip770)" d="M358.906 1530.29 L388.582 1530.29 L388.582 1534.23 L358.906 1534.23 L358.906 1530.29 Z" fill="#000000" fill-rule="evenodd" fill-opacity="1" /><path clip-path="url(#clip770)" d="M411.522 1516.63 L399.716 1535.08 L411.522 1535.08 L411.522 1516.63 M410.295 1512.56 L416.174 1512.56 L416.174 1535.08 L421.105 1535.08 L421.105 1538.97 L416.174 1538.97 L416.174 1547.12 L411.522 1547.12 L411.522 1538.97 L395.92 1538.97 L395.92 1534.46 L410.295 1512.56 Z" fill="#000000" fill-rule="evenodd" fill-opacity="1" /><path clip-path="url(#clip770)" d="M730.432 1530.29 L760.107 1530.29 L760.107 1534.23 L730.432 1534.23 L730.432 1530.29 Z" fill="#000000" fill-rule="evenodd" fill-opacity="1" /><path clip-path="url(#clip770)" d="M774.228 1543.18 L790.547 1543.18 L790.547 1547.12 L768.603 1547.12 L768.603 1543.18 Q771.265 1540.43 775.848 1535.8 Q780.455 1531.15 781.635 1529.81 Q783.88 1527.28 784.76 1525.55 Q785.663 1523.79 785.663 1522.1 Q785.663 1519.34 783.718 1517.61 Q781.797 1515.87 778.695 1515.87 Q776.496 1515.87 774.043 1516.63 Q771.612 1517.4 768.834 1518.95 L768.834 1514.23 Q771.658 1513.09 774.112 1512.51 Q776.566 1511.93 778.603 1511.93 Q783.973 1511.93 787.168 1514.62 Q790.362 1517.31 790.362 1521.8 Q790.362 1523.93 789.552 1525.85 Q788.765 1527.74 786.658 1530.34 Q786.08 1531.01 782.978 1534.23 Q779.876 1537.42 774.228 1543.18 Z" fill="#000000" fill-rule="evenodd" fill-opacity="1" /><path clip-path="url(#clip770)" d="M1130.97 1515.64 Q1127.36 1515.64 1125.53 1519.2 Q1123.73 1522.75 1123.73 1529.87 Q1123.73 1536.98 1125.53 1540.55 Q1127.36 1544.09 1130.97 1544.09 Q1134.61 1544.09 1136.41 1540.55 Q1138.24 1536.98 1138.24 1529.87 Q1138.24 1522.75 1136.41 1519.2 Q1134.61 1515.64 1130.97 1515.64 M1130.97 1511.93 Q1136.78 1511.93 1139.84 1516.54 Q1142.92 1521.12 1142.92 1529.87 Q1142.92 1538.6 1139.84 1543.21 Q1136.78 1547.79 1130.97 1547.79 Q1125.16 1547.79 1122.08 1543.21 Q1119.03 1538.6 1119.03 1529.87 Q1119.03 1521.12 1122.08 1516.54 Q1125.16 1511.93 1130.97 1511.93 Z" fill="#000000" fill-rule="evenodd" fill-opacity="1" /><path clip-path="url(#clip770)" d="M1496.11 1543.18 L1512.43 1543.18 L1512.43 1547.12 L1490.49 1547.12 L1490.49 1543.18 Q1493.15 1540.43 1497.73 1535.8 Q1502.34 1531.15 1503.52 1529.81 Q1505.76 1527.28 1506.64 1525.55 Q1507.55 1523.79 1507.55 1522.1 Q1507.55 1519.34 1505.6 1517.61 Q1503.68 1515.87 1500.58 1515.87 Q1498.38 1515.87 1495.92 1516.63 Q1493.49 1517.4 1490.72 1518.95 L1490.72 1514.23 Q1493.54 1513.09 1495.99 1512.51 Q1498.45 1511.93 1500.49 1511.93 Q1505.86 1511.93 1509.05 1514.62 Q1512.24 1517.31 1512.24 1521.8 Q1512.24 1523.93 1511.43 1525.85 Q1510.65 1527.74 1508.54 1530.34 Q1507.96 1531.01 1504.86 1534.23 Q1501.76 1537.42 1496.11 1543.18 Z" fill="#000000" fill-rule="evenodd" fill-opacity="1" /><path clip-path="url(#clip770)" d="M1874.95 1516.63 L1863.15 1535.08 L1874.95 1535.08 L1874.95 1516.63 M1873.72 1512.56 L1879.6 1512.56 L1879.6 1535.08 L1884.53 1535.08 L1884.53 1538.97 L1879.6 1538.97 L1879.6 1547.12 L1874.95 1547.12 L1874.95 1538.97 L1859.35 1538.97 L1859.35 1534.46 L1873.72 1512.56 Z" fill="#000000" fill-rule="evenodd" fill-opacity="1" /><polyline clip-path="url(#clip772)" style="stroke:#000000; stroke-linecap:butt; stroke-linejoin:round; stroke-width:2; stroke-opacity:0.1; fill:none" points="
  149.191,1309.94 2112.76,1309.94 
  "/>
<polyline clip-path="url(#clip772)" style="stroke:#000000; stroke-linecap:butt; stroke-linejoin:round; stroke-width:2; stroke-opacity:0.1; fill:none" points="
  149.191,1038.39 2112.76,1038.39 
  "/>
<polyline clip-path="url(#clip772)" style="stroke:#000000; stroke-linecap:butt; stroke-linejoin:round; stroke-width:2; stroke-opacity:0.1; fill:none" points="
  149.191,766.846 2112.76,766.846 
  "/>
<polyline clip-path="url(#clip772)" style="stroke:#000000; stroke-linecap:butt; stroke-linejoin:round; stroke-width:2; stroke-opacity:0.1; fill:none" points="
  149.191,495.298 2112.76,495.298 
  "/>
<polyline clip-path="url(#clip772)" style="stroke:#000000; stroke-linecap:butt; stroke-linejoin:round; stroke-width:2; stroke-opacity:0.1; fill:none" points="
  149.191,223.75 2112.76,223.75 
  "/>
<polyline clip-path="url(#clip770)" style="stroke:#000000; stroke-linecap:butt; stroke-linejoin:round; stroke-width:4; stroke-opacity:1; fill:none" points="
  149.191,1486.45 149.191,47.2441 
  "/>
<polyline clip-path="url(#clip770)" style="stroke:#000000; stroke-linecap:butt; stroke-linejoin:round; stroke-width:4; stroke-opacity:1; fill:none" points="
  149.191,1309.94 172.754,1309.94 
  "/>
<polyline clip-path="url(#clip770)" style="stroke:#000000; stroke-linecap:butt; stroke-linejoin:round; stroke-width:4; stroke-opacity:1; fill:none" points="
  149.191,1038.39 172.754,1038.39 
  "/>
<polyline clip-path="url(#clip770)" style="stroke:#000000; stroke-linecap:butt; stroke-linejoin:round; stroke-width:4; stroke-opacity:1; fill:none" points="
  149.191,766.846 172.754,766.846 
  "/>
<polyline clip-path="url(#clip770)" style="stroke:#000000; stroke-linecap:butt; stroke-linejoin:round; stroke-width:4; stroke-opacity:1; fill:none" points="
  149.191,495.298 172.754,495.298 
  "/>
<polyline clip-path="url(#clip770)" style="stroke:#000000; stroke-linecap:butt; stroke-linejoin:round; stroke-width:4; stroke-opacity:1; fill:none" points="
  149.191,223.75 172.754,223.75 
  "/>
<path clip-path="url(#clip770)" d="M50.9921 1310.39 L80.6679 1310.39 L80.6679 1314.33 L50.9921 1314.33 L50.9921 1310.39 Z" fill="#000000" fill-rule="evenodd" fill-opacity="1" /><path clip-path="url(#clip770)" d="M103.608 1296.74 L91.8021 1315.18 L103.608 1315.18 L103.608 1296.74 M102.381 1292.66 L108.26 1292.66 L108.26 1315.18 L113.191 1315.18 L113.191 1319.07 L108.26 1319.07 L108.26 1327.22 L103.608 1327.22 L103.608 1319.07 L88.0058 1319.07 L88.0058 1314.56 L102.381 1292.66 Z" fill="#000000" fill-rule="evenodd" fill-opacity="1" /><path clip-path="url(#clip770)" d="M53.0754 1038.85 L82.7512 1038.85 L82.7512 1042.78 L53.0754 1042.78 L53.0754 1038.85 Z" fill="#000000" fill-rule="evenodd" fill-opacity="1" /><path clip-path="url(#clip770)" d="M96.8715 1051.74 L113.191 1051.74 L113.191 1055.67 L91.2465 1055.67 L91.2465 1051.74 Q93.9086 1048.98 98.4919 1044.35 Q103.098 1039.7 104.279 1038.36 Q106.524 1035.84 107.404 1034.1 Q108.307 1032.34 108.307 1030.65 Q108.307 1027.9 106.362 1026.16 Q104.441 1024.42 101.339 1024.42 Q99.14 1024.42 96.6863 1025.19 Q94.2558 1025.95 91.478 1027.5 L91.478 1022.78 Q94.3021 1021.65 96.7558 1021.07 Q99.2095 1020.49 101.246 1020.49 Q106.617 1020.49 109.811 1023.17 Q113.006 1025.86 113.006 1030.35 Q113.006 1032.48 112.196 1034.4 Q111.408 1036.3 109.302 1038.89 Q108.723 1039.56 105.621 1042.78 Q102.52 1045.97 96.8715 1051.74 Z" fill="#000000" fill-rule="evenodd" fill-opacity="1" /><path clip-path="url(#clip770)" d="M101.246 752.645 Q97.6354 752.645 95.8067 756.209 Q94.0012 759.751 94.0012 766.881 Q94.0012 773.987 95.8067 777.552 Q97.6354 781.094 101.246 781.094 Q104.881 781.094 106.686 777.552 Q108.515 773.987 108.515 766.881 Q108.515 759.751 106.686 756.209 Q104.881 752.645 101.246 752.645 M101.246 748.941 Q107.057 748.941 110.112 753.547 Q113.191 758.131 113.191 766.881 Q113.191 775.608 110.112 780.214 Q107.057 784.797 101.246 784.797 Q95.4363 784.797 92.3576 780.214 Q89.3021 775.608 89.3021 766.881 Q89.3021 758.131 92.3576 753.547 Q95.4363 748.941 101.246 748.941 Z" fill="#000000" fill-rule="evenodd" fill-opacity="1" /><path clip-path="url(#clip770)" d="M96.8715 508.643 L113.191 508.643 L113.191 512.578 L91.2465 512.578 L91.2465 508.643 Q93.9086 505.888 98.4919 501.259 Q103.098 496.606 104.279 495.263 Q106.524 492.74 107.404 491.004 Q108.307 489.245 108.307 487.555 Q108.307 484.8 106.362 483.064 Q104.441 481.328 101.339 481.328 Q99.14 481.328 96.6863 482.092 Q94.2558 482.856 91.478 484.407 L91.478 479.685 Q94.3021 478.551 96.7558 477.972 Q99.2095 477.393 101.246 477.393 Q106.617 477.393 109.811 480.078 Q113.006 482.763 113.006 487.254 Q113.006 489.384 112.196 491.305 Q111.408 493.203 109.302 495.796 Q108.723 496.467 105.621 499.685 Q102.52 502.879 96.8715 508.643 Z" fill="#000000" fill-rule="evenodd" fill-opacity="1" /><path clip-path="url(#clip770)" d="M103.608 210.544 L91.8021 228.993 L103.608 228.993 L103.608 210.544 M102.381 206.47 L108.26 206.47 L108.26 228.993 L113.191 228.993 L113.191 232.882 L108.26 232.882 L108.26 241.03 L103.608 241.03 L103.608 232.882 L88.0058 232.882 L88.0058 228.368 L102.381 206.47 Z" fill="#000000" fill-rule="evenodd" fill-opacity="1" /><polyline clip-path="url(#clip772)" style="stroke:#be3852; stroke-linecap:butt; stroke-linejoin:round; stroke-width:4; stroke-opacity:1; fill:none" points="
  204.763,1420.49 223.288,1429.92 227.824,1432.14 241.812,1438.74 257.267,1445.72 
  "/>
<polyline clip-path="url(#clip772)" style="stroke:#ab2e5d; stroke-linecap:butt; stroke-linejoin:round; stroke-width:4; stroke-opacity:1; fill:none" points="
  204.763,1359.49 212.391,1364.25 223.288,1370.78 235.527,1377.83 241.812,1381.31 260.336,1391.14 260.868,1391.41 278.86,1400.23 288.998,1404.98 297.384,1408.77 
  315.909,1416.77 320.256,1418.56 334.433,1424.2 352.957,1431.21 355.531,1432.14 371.481,1437.7 390.005,1443.81 396.117,1445.72 
  "/>
<polyline clip-path="url(#clip772)" style="stroke:#962666; stroke-linecap:butt; stroke-linejoin:round; stroke-width:4; stroke-opacity:1; fill:none" points="
  204.763,1287.74 215.718,1296.36 223.288,1302.04 234.245,1309.94 241.812,1315.15 254.466,1323.52 260.336,1327.23 276.599,1337.1 278.86,1338.41 297.384,1348.74 
  301.019,1350.67 315.909,1358.3 328.09,1364.25 334.433,1367.23 352.957,1375.53 358.33,1377.83 371.481,1383.24 390.005,1390.46 392.545,1391.41 408.53,1397.13 
  427.054,1403.38 432.072,1404.98 445.578,1409.15 464.102,1414.53 478.925,1418.56 482.626,1419.54 501.151,1424.11 519.675,1428.37 537.371,1432.14 538.199,1432.31 
  556.723,1435.86 575.247,1439.11 593.772,1442.08 612.296,1444.77 619.562,1445.72 
  "/>
<polyline clip-path="url(#clip772)" style="stroke:#962666; stroke-linecap:butt; stroke-linejoin:round; stroke-width:4; stroke-opacity:1; fill:none" points="
  990.486,1445.72 1001.3,1444.44 1019.83,1442.07 1038.35,1439.51 1056.88,1436.77 1075.4,1433.85 1085.59,1432.14 1093.92,1430.72 1112.45,1427.37 1130.97,1423.85 
  1149.5,1420.16 1157.16,1418.56 1168.02,1416.26 1186.55,1412.14 1205.07,1407.87 1217.08,1404.98 1223.59,1403.39 1242.12,1398.7 1260.64,1393.84 1269.61,1391.41 
  1279.17,1388.77 1297.69,1383.49 1316.22,1378.06 1316.97,1377.83 1334.74,1372.36 1353.26,1366.5 1360.19,1364.25 1371.79,1360.42 1390.31,1354.14 1400.27,1350.67 
  1408.84,1347.65 1427.36,1340.94 1437.71,1337.1 1445.88,1334.02 1464.41,1326.87 1472.92,1323.52 1482.93,1319.51 1501.46,1311.93 1506.2,1309.94 1519.98,1304.08 
  1537.8,1296.36 1538.51,1296.06 1557.03,1287.72 1567.8,1282.79 1575.55,1279.17 1594.08,1270.39 1596.52,1269.21 1612.6,1261.3 1623.93,1255.63 1631.13,1251.97 
  1649.65,1242.39 1650.29,1242.05 1668.18,1232.47 1675.5,1228.48 1686.7,1222.27 1699.8,1214.9 1705.22,1211.79 1723.22,1201.32 1723.75,1201.01 1742.27,1189.86 
  1745.73,1187.75 1760.8,1178.37 1767.44,1174.17 1779.32,1166.53 1788.41,1160.59 1797.84,1154.31 1808.67,1147.01 1816.37,1141.71 1828.23,1133.44 1834.89,1128.7 
  1847.14,1119.86 1853.42,1115.24 1865.42,1106.28 1871.94,1101.31 1883.09,1092.7 1890.47,1086.89 1900.18,1079.13 1908.99,1071.94 1916.72,1065.55 1927.51,1056.42 
  1932.71,1051.97 1946.04,1040.3 1948.18,1038.39 1963.13,1024.82 1964.56,1023.48 1977.55,1011.24 1983.09,1005.89 1991.5,997.662 2001.61,987.52 2004.99,984.084 
  2018.01,970.507 2020.13,968.232 2030.54,956.93 2038.66,947.874 2042.66,943.352 2054.33,929.775 2057.18,926.353 
  "/>
<polyline clip-path="url(#clip772)" style="stroke:#811f6b; stroke-linecap:butt; stroke-linejoin:round; stroke-width:4; stroke-opacity:1; fill:none" points="
  2057.18,834.766 2048.28,848.31 2039,861.888 2038.66,862.371 2029.2,875.465 2020.13,887.591 2019.04,889.043 2008.35,902.62 2001.61,910.903 1997.25,916.197 
  1985.69,929.775 1983.09,932.728 1973.62,943.352 1964.56,953.218 1961.11,956.93 1948.11,970.507 1946.04,972.607 1934.57,984.084 1927.51,990.963 1920.55,997.662 
  1908.99,1008.49 1906.02,1011.24 1890.96,1024.82 1890.47,1025.25 1875.3,1038.39 1871.94,1041.23 1859.07,1051.97 1853.42,1056.58 1842.27,1065.55 1834.89,1071.35 
  1824.85,1079.13 1816.37,1085.56 1806.81,1092.7 1797.84,1099.25 1788.09,1106.28 1779.32,1112.47 1768.69,1119.86 1760.8,1125.23 1748.56,1133.44 1742.27,1137.57 
  1727.68,1147.01 1723.75,1149.5 1706,1160.59 1705.22,1161.07 1686.7,1172.22 1683.41,1174.17 1668.18,1183.02 1659.91,1187.75 1649.65,1193.5 1635.47,1201.32 
  1631.13,1203.67 1612.6,1213.53 1609.97,1214.9 1594.08,1223.04 1583.29,1228.48 1575.55,1232.3 1557.03,1241.29 1555.42,1242.05 1538.51,1249.95 1526.1,1255.63 
  1519.98,1258.39 1501.46,1266.55 1495.28,1269.21 1482.93,1274.44 1464.41,1282.13 1462.78,1282.79 1445.88,1289.51 1428.28,1296.36 1427.36,1296.72 1408.84,1303.62 
  1391.48,1309.94 1390.31,1310.36 1371.79,1316.81 1353.26,1323.09 1351.97,1323.52 1334.74,1329.09 1316.22,1334.92 1309.09,1337.1 1297.69,1340.51 1279.17,1345.89 
  1262.15,1350.67 1260.64,1351.09 1242.12,1356.02 1223.59,1360.78 1209.54,1364.25 1205.07,1365.34 1186.55,1369.65 1168.02,1373.78 1149.5,1377.73 1149.03,1377.83 
  1130.97,1381.42 1112.45,1384.93 1093.92,1388.24 1075.4,1391.37 1075.16,1391.41 1056.88,1394.24 1038.35,1396.91 1019.83,1399.39 1001.3,1401.66 982.78,1403.74 
  970.366,1404.98 964.256,1405.59 945.731,1407.2 927.207,1408.61 908.683,1409.8 890.159,1410.77 871.635,1411.52 853.11,1412.04 834.586,1412.33 816.062,1412.38 
  797.538,1412.2 779.014,1411.77 760.489,1411.09 741.965,1410.16 723.441,1408.97 704.917,1407.52 686.393,1405.8 678.824,1404.98 667.868,1403.77 649.344,1401.44 
  630.82,1398.81 612.296,1395.89 593.772,1392.66 587.196,1391.41 575.247,1389.06 556.723,1385.09 538.199,1380.8 526.322,1377.83 519.675,1376.11 501.151,1370.98 
  482.626,1365.48 478.73,1364.25 464.102,1359.47 445.578,1353.01 439.226,1350.67 427.054,1346.01 408.53,1338.5 405.233,1337.1 390.005,1330.33 375.461,1323.52 
  371.481,1321.58 352.957,1312.08 348.986,1309.94 334.433,1301.77 325.25,1296.36 315.909,1290.61 303.767,1282.79 297.384,1278.47 284.256,1269.21 278.86,1265.2 
  266.481,1255.63 260.336,1250.62 250.242,1242.05 241.812,1234.49 235.367,1228.48 223.288,1216.52 221.712,1214.9 209.265,1201.32 204.763,1196.08 
  "/>
<polyline clip-path="url(#clip772)" style="stroke:#6d186e; stroke-linecap:butt; stroke-linejoin:round; stroke-width:4; stroke-opacity:1; fill:none" points="
  204.763,1035.99 205.396,1038.39 209.584,1051.97 214.429,1065.55 219.947,1079.13 223.288,1086.46 226.229,1092.7 233.323,1106.28 241.166,1119.86 241.812,1120.89 
  249.988,1133.44 259.643,1147.01 260.336,1147.92 270.407,1160.59 278.86,1170.45 282.174,1174.17 295.134,1187.75 297.384,1189.96 309.426,1201.32 315.909,1207.07 
  325.118,1214.9 334.433,1222.37 342.395,1228.48 352.957,1236.14 361.477,1242.05 371.481,1248.64 382.627,1255.63 390.005,1260.04 406.162,1269.21 408.53,1270.49 
  427.054,1280.03 432.692,1282.79 445.578,1288.8 462.737,1296.36 464.102,1296.94 482.626,1304.34 497.549,1309.94 501.151,1311.24 519.675,1317.52 538.199,1323.37 
  538.706,1323.52 556.723,1328.65 575.247,1333.53 589.889,1337.1 593.772,1338.01 612.296,1342.02 630.82,1345.68 649.344,1349 659.7,1350.67 667.868,1351.95 
  686.393,1354.53 704.917,1356.8 723.441,1358.77 741.965,1360.44 760.489,1361.81 779.014,1362.9 797.538,1363.71 816.062,1364.25 816.362,1364.25 834.586,1364.51 
  853.11,1364.51 871.635,1364.26 871.922,1364.25 890.159,1363.75 908.683,1362.99 927.207,1361.99 945.731,1360.75 964.256,1359.28 982.78,1357.58 1001.3,1355.65 
  1019.83,1353.51 1038.35,1351.14 1041.71,1350.67 1056.88,1348.52 1075.4,1345.66 1093.92,1342.61 1112.45,1339.34 1124.43,1337.1 1130.97,1335.85 1149.5,1332.1 
  1168.02,1328.15 1186.55,1324.01 1188.65,1323.52 1205.07,1319.59 1223.59,1314.97 1242.12,1310.16 1242.93,1309.94 1260.64,1305.06 1279.17,1299.77 1290.66,1296.36 
  1297.69,1294.25 1316.22,1288.47 1333.88,1282.79 1334.74,1282.51 1353.26,1276.23 1371.79,1269.79 1373.39,1269.21 1390.31,1263.03 1408.84,1256.09 1410.02,1255.63 
  1427.36,1248.82 1444.2,1242.05 1445.88,1241.36 1464.41,1233.57 1476.27,1228.48 1482.93,1225.56 1501.46,1217.25 1506.59,1214.9 1519.98,1208.64 1535.33,1201.32 
  1538.51,1199.78 1557.03,1190.57 1562.61,1187.75 1575.55,1181.05 1588.62,1174.17 1594.08,1171.23 1612.6,1161.09 1613.49,1160.59 1631.13,1150.54 1637.2,1147.01 
  1649.65,1139.63 1659.94,1133.44 1668.18,1128.36 1681.76,1119.86 1686.7,1116.7 1702.71,1106.28 1705.22,1104.61 1722.83,1092.7 1723.75,1092.07 1742.16,1079.13 
  1742.27,1079.05 1760.74,1065.55 1760.8,1065.51 1778.6,1051.97 1779.32,1051.41 1795.78,1038.39 1797.84,1036.72 1812.3,1024.82 1816.37,1021.38 1828.2,1011.24 
  1834.89,1005.35 1843.5,997.662 1853.42,988.566 1858.23,984.084 1871.94,970.966 1872.41,970.507 1885.98,956.93 1890.47,952.298 1899.02,943.352 1908.99,932.593 
  1911.57,929.775 1923.56,916.197 1927.51,911.571 1935.05,902.62 1946.04,889.116 1946.1,889.043 1956.56,875.465 1964.56,864.688 1966.61,861.888 1976.13,848.31 
  1983.09,837.968 1985.23,834.733 1993.81,821.156 2001.61,808.211 2001.99,807.578 2009.62,794.001 2016.85,780.423 2020.13,773.851 2023.59,766.846 2029.86,753.269 
  2035.71,739.691 2038.66,732.288 2041.08,726.114 2045.96,712.536 2050.4,698.959 2054.38,685.382 2057.18,674.572 
  "/>
<polyline clip-path="url(#clip772)" style="stroke:#6d186e; stroke-linecap:butt; stroke-linejoin:round; stroke-width:4; stroke-opacity:1; fill:none" points="
  2057.18,497.704 2056.55,495.298 2052.36,481.721 2047.52,468.143 2042,454.566 2038.66,447.234 2035.72,440.989 2028.62,427.411 2020.78,413.834 2020.13,412.807 
  2011.96,400.256 2002.3,386.679 2001.61,385.774 1991.54,373.102 1983.09,363.244 1979.77,359.524 1966.81,345.947 1964.56,343.736 1952.52,332.369 1946.04,326.623 
  1936.83,318.792 1927.51,311.326 1919.55,305.215 1908.99,297.548 1900.47,291.637 1890.47,285.054 1879.32,278.06 1871.94,273.656 1855.78,264.482 1853.42,263.201 
  1834.89,253.659 1829.25,250.905 1816.37,244.889 1799.21,237.328 1797.84,236.751 1779.32,229.348 1764.4,223.75 1760.8,222.454 1742.27,216.175 1723.75,210.323 
  1723.24,210.173 1705.22,205.044 1686.7,200.16 1672.06,196.595 1668.18,195.684 1649.65,191.671 1631.13,188.009 1612.6,184.691 1602.25,183.018 1594.08,181.744 
  1575.55,179.161 1557.03,176.889 1538.51,174.923 1519.98,173.255 1501.46,171.879 1482.93,170.789 1464.41,169.98 1445.88,169.445 1445.59,169.441 1427.36,169.186 
  1408.84,169.183 1390.31,169.433 1390.03,169.441 1371.79,169.942 1353.26,170.699 1334.74,171.699 1316.22,172.938 1297.69,174.41 1279.17,176.112 1260.64,178.038 
  1242.12,180.186 1223.59,182.549 1220.24,183.018 1205.07,185.176 1186.55,188.027 1168.02,191.086 1149.5,194.35 1137.52,196.595 1130.97,197.844 1112.45,201.594 
  1093.92,205.54 1075.4,209.679 1073.3,210.173 1056.88,214.1 1038.35,218.722 1019.83,223.529 1019.01,223.75 1001.3,228.634 982.78,233.925 971.284,237.328 
  964.256,239.445 945.731,245.226 928.068,250.905 927.207,251.187 908.683,257.462 890.159,263.906 888.553,264.482 871.635,270.666 853.11,277.605 851.931,278.06 
  834.586,284.873 817.751,291.637 816.062,292.329 797.538,300.117 785.679,305.215 779.014,308.134 760.489,316.437 755.354,318.792 741.965,325.05 726.615,332.369 
  723.441,333.913 704.917,343.117 699.337,345.947 686.393,352.64 673.327,359.524 667.868,362.459 649.344,372.604 648.454,373.102 630.82,383.157 624.75,386.679 
  612.296,394.057 602.011,400.256 593.772,405.329 580.19,413.834 575.247,416.996 559.239,427.411 556.723,429.085 539.119,440.989 538.199,441.625 519.787,454.566 
  519.675,454.647 501.208,468.143 501.151,468.186 483.346,481.721 482.626,482.281 466.169,495.298 464.102,496.974 449.645,508.875 445.578,512.31 433.746,522.453 
  427.054,528.342 418.444,536.03 408.53,545.126 403.715,549.608 390.005,562.726 389.532,563.185 375.971,576.762 371.481,581.394 362.931,590.34 352.957,601.099 
  350.38,603.917 338.383,617.495 334.433,622.121 326.897,631.072 315.909,644.576 315.849,644.649 305.387,658.227 297.384,669.004 295.333,671.804 285.813,685.382 
  278.86,695.724 276.715,698.959 268.139,712.536 260.336,725.481 259.959,726.114 252.33,739.691 245.101,753.269 241.812,759.841 238.353,766.846 232.083,780.423 
  226.233,794.001 223.288,801.404 220.864,807.578 215.987,821.156 211.55,834.733 207.565,848.31 204.763,859.12 
  "/>
<polyline clip-path="url(#clip772)" style="stroke:#811f6b; stroke-linecap:butt; stroke-linejoin:round; stroke-width:4; stroke-opacity:1; fill:none" points="
  204.763,698.926 213.667,685.382 222.943,671.804 223.288,671.321 232.743,658.227 241.812,646.101 242.911,644.649 253.597,631.072 260.336,622.789 264.698,617.495 
  276.261,603.917 278.86,600.964 288.33,590.34 297.384,580.474 300.835,576.762 313.838,563.185 315.909,561.085 327.375,549.608 334.433,542.729 341.398,536.03 
  352.957,525.197 355.925,522.453 370.988,508.875 371.481,508.442 386.65,495.298 390.005,492.459 402.872,481.721 408.53,477.107 419.678,468.143 427.054,462.345 
  437.092,454.566 445.578,448.134 455.141,440.989 464.102,434.437 473.853,427.411 482.626,421.223 493.258,413.834 501.151,408.461 513.386,400.256 519.675,396.124 
  534.271,386.679 538.199,384.187 555.948,373.102 556.723,372.627 575.247,361.472 578.535,359.524 593.772,350.671 602.036,345.947 612.296,340.192 626.476,332.369 
  630.82,330.017 649.344,320.164 651.974,318.792 667.868,310.648 678.66,305.215 686.393,301.392 704.917,292.401 706.524,291.637 723.441,283.741 735.845,278.06 
  741.965,275.305 760.489,267.144 766.663,264.482 779.014,259.25 797.538,251.563 799.164,250.905 816.062,244.183 833.665,237.328 834.586,236.975 853.11,230.072 
  870.466,223.75 871.635,223.332 890.159,216.887 908.683,210.599 909.978,210.173 927.207,204.598 945.731,198.768 952.859,196.595 964.256,193.178 982.78,187.801 
  999.793,183.018 1001.3,182.6 1019.83,177.672 1038.35,172.914 1052.41,169.441 1056.88,168.354 1075.4,164.043 1093.92,159.91 1112.45,155.957 1112.91,155.863 
  1130.97,152.269 1149.5,148.766 1168.02,145.45 1186.55,142.324 1186.79,142.286 1205.07,139.455 1223.59,136.781 1242.12,134.304 1260.64,132.028 1279.17,129.955 
  1291.58,128.708 1297.69,128.105 1316.22,126.489 1334.74,125.084 1353.26,123.894 1371.79,122.923 1390.31,122.174 1408.84,121.653 1427.36,121.362 1445.88,121.307 
  1464.41,121.492 1482.93,121.921 1501.46,122.599 1519.98,123.53 1538.51,124.72 1557.03,126.174 1575.55,127.896 1583.12,128.708 1594.08,129.922 1612.6,132.255 
  1631.13,134.88 1649.65,137.805 1668.18,141.035 1674.75,142.286 1686.7,144.636 1705.22,148.599 1723.75,152.896 1735.62,155.863 1742.27,157.583 1760.8,162.712 
  1779.32,168.212 1783.22,169.441 1797.84,174.226 1816.37,180.678 1822.72,183.018 1834.89,187.679 1853.42,195.189 1856.71,196.595 1871.94,203.359 1886.49,210.173 
  1890.47,212.117 1908.99,221.616 1912.96,223.75 1927.51,231.924 1936.7,237.328 1946.04,243.084 1958.18,250.905 1964.56,255.22 1977.69,264.482 1983.09,268.488 
  1995.47,278.06 2001.61,283.073 2011.71,291.637 2020.13,299.206 2026.58,305.215 2038.66,317.174 2040.23,318.792 2052.68,332.369 2057.18,337.615 
  "/>
<polyline clip-path="url(#clip772)" style="stroke:#962666; stroke-linecap:butt; stroke-linejoin:round; stroke-width:4; stroke-opacity:1; fill:none" points="
  2057.18,245.952 2046.23,237.328 2038.66,231.653 2027.7,223.75 2020.13,218.541 2007.48,210.173 2001.61,206.46 1985.35,196.595 1983.09,195.281 1964.56,184.957 
  1960.93,183.018 1946.04,175.392 1933.86,169.441 1927.51,166.46 1908.99,158.158 1903.62,155.863 1890.47,150.454 1871.94,143.228 1869.4,142.286 1853.42,136.567 
  1834.89,130.311 1829.87,128.708 1816.37,124.54 1797.84,119.164 1783.02,115.131 1779.32,114.156 1760.8,109.579 1742.27,105.322 1724.58,101.554 1723.75,101.383 
  1705.22,97.8347 1686.7,94.5794 1668.18,91.6113 1649.65,88.9251 1642.39,87.9763 
  "/>
<polyline clip-path="url(#clip772)" style="stroke:#ab2e5d; stroke-linecap:butt; stroke-linejoin:round; stroke-width:4; stroke-opacity:1; fill:none" points="
  1865.83,87.9763 1871.94,89.8863 1890.47,95.9952 1906.42,101.554 1908.99,102.481 1927.51,109.487 1941.69,115.131 1946.04,116.923 1964.56,124.918 1972.95,128.708 
  1983.09,133.46 2001.08,142.286 2001.61,142.557 2020.13,152.385 2026.42,155.863 2038.66,162.909 2049.56,169.441 2057.18,174.205 
  "/>
<polyline clip-path="url(#clip772)" style="stroke:#be3852; stroke-linecap:butt; stroke-linejoin:round; stroke-width:4; stroke-opacity:1; fill:none" points="
  2057.18,113.2 2038.66,103.77 2034.12,101.554 2020.13,94.9535 2004.68,87.9763 
  "/>
<polyline clip-path="url(#clip772)" style="stroke:#962666; stroke-linecap:butt; stroke-linejoin:round; stroke-width:4; stroke-opacity:1; fill:none" points="
  1271.46,87.9763 1260.64,89.2473 1242.12,91.6189 1223.59,94.1776 1205.07,96.9201 1186.55,99.8435 1176.36,101.554 1168.02,102.974 1149.5,106.318 1130.97,109.837 
  1112.45,113.529 1104.79,115.131 1093.92,117.436 1075.4,121.547 1056.88,125.824 1044.87,128.708 1038.35,130.297 1019.83,134.994 1001.3,139.852 992.34,142.286 
  982.78,144.922 964.256,150.201 945.731,155.634 944.976,155.863 927.207,161.333 908.683,167.189 901.76,169.441 890.159,173.273 871.635,179.554 861.677,183.018 
  853.11,186.045 834.586,192.755 824.232,196.595 816.062,199.674 797.538,206.817 789.029,210.173 779.014,214.186 760.489,221.766 755.747,223.75 741.965,229.609 
  724.143,237.328 723.441,237.637 704.917,245.972 694.148,250.905 686.393,254.517 667.868,263.304 665.432,264.482 649.344,272.395 638.016,278.06 630.82,281.72 
  612.296,291.301 611.659,291.637 593.772,301.224 586.443,305.215 575.247,311.418 562.144,318.792 556.723,321.898 538.722,332.369 538.199,332.679 519.675,343.833 
  516.217,345.947 501.151,355.325 494.502,359.524 482.626,367.167 473.535,373.102 464.102,379.377 453.282,386.679 445.578,391.979 433.714,400.256 427.054,404.996 
  414.805,413.834 408.53,418.453 396.526,427.411 390.005,432.378 378.853,440.989 371.481,446.801 361.762,454.566 352.957,461.754 345.231,468.143 334.433,477.273 
  329.238,481.721 315.909,493.396 313.764,495.298 298.815,508.875 297.384,510.208 284.397,522.453 278.86,527.802 270.448,536.03 260.336,546.172 256.952,549.608 
  243.932,563.185 241.812,565.46 231.403,576.762 223.288,585.818 219.284,590.34 207.614,603.917 204.763,607.339 
  "/>
<polyline clip-path="url(#clip772)" style="stroke:#ab2e5d; stroke-linecap:butt; stroke-linejoin:round; stroke-width:4; stroke-opacity:1; fill:none" points="
  204.763,535.56 217.809,522.453 223.288,517.077 231.743,508.875 241.812,499.331 246.117,495.298 260.336,482.275 260.948,481.721 276.301,468.143 278.86,465.928 
  292.147,454.566 297.384,450.18 308.494,440.989 315.909,434.978 325.36,427.411 334.433,420.291 342.764,413.834 352.957,406.088 360.729,400.256 371.481,392.342 
  379.274,386.679 390.005,379.026 398.423,373.102 408.53,366.118 418.199,359.524 427.054,353.595 438.628,345.947 445.578,341.436 459.736,332.369 464.102,329.622 
  481.552,318.792 482.626,318.137 501.151,307.003 504.17,305.215 519.675,296.186 527.599,291.637 538.199,285.654 551.851,278.06 556.723,275.394 575.247,265.412 
  577.002,264.482 593.772,255.74 603.191,250.905 612.296,246.306 630.348,237.328 630.82,237.096 649.344,228.196 658.751,223.75 667.868,219.508 686.393,211.035 
  688.315,210.173 704.917,202.842 719.311,196.595 723.441,194.83 741.965,187.073 751.837,183.018 760.489,179.517 779.014,172.174 786.057,169.441 797.538,165.052 
  816.062,158.119 822.232,155.863 834.586,151.412 853.11,144.886 860.675,142.286 871.635,138.574 890.159,132.451 901.774,128.708 908.683,126.514 927.207,120.793 
  945.731,115.215 946.018,115.131 964.256,109.888 982.78,104.71 994.431,101.554 1001.3,99.718 1019.83,94.9365 1038.35,90.3068 1048.02,87.9763 
  "/>
<polyline clip-path="url(#clip772)" style="stroke:#be3852; stroke-linecap:butt; stroke-linejoin:round; stroke-width:4; stroke-opacity:1; fill:none" points="
  909.126,87.9763 908.683,88.112 890.159,93.9471 871.635,99.9169 866.684,101.554 853.11,106.104 834.586,112.455 826.959,115.131 816.062,119.008 797.538,125.743 
  789.555,128.708 779.014,132.68 760.489,139.802 754.16,142.286 741.965,147.141 723.441,154.652 720.514,155.863 704.917,162.411 688.452,169.441 686.393,170.333 
  667.868,178.515 657.842,183.018 649.344,186.892 630.82,195.476 628.446,196.595 612.296,204.328 600.274,210.173 593.772,213.382 575.247,222.669 573.126,223.75 
  556.723,232.239 547.031,237.328 538.199,242.037 521.804,250.905 519.675,252.075 501.151,262.409 497.487,264.482 482.626,273.027 473.992,278.06 464.102,283.918 
  451.244,291.637 445.578,295.094 429.212,305.215 427.054,306.571 408.53,318.373 407.881,318.792 390.005,330.532 387.242,332.369 371.481,343.033 367.228,345.947 
  352.957,355.895 347.814,359.524 334.433,369.137 328.981,373.102 315.909,382.78 310.706,386.679 297.384,396.847 292.97,400.256 278.86,411.361 275.755,413.834 
  260.336,426.348 259.042,427.411 242.832,440.989 241.812,441.861 227.122,454.566 223.288,457.95 211.871,468.143 204.763,474.623 
  "/>
<polyline clip-path="url(#clip772)" style="stroke:#d04544; stroke-linecap:butt; stroke-linejoin:round; stroke-width:4; stroke-opacity:1; fill:none" points="
  204.763,420.65 212.9,413.834 223.288,405.292 229.48,400.256 241.812,390.411 246.54,386.679 260.336,375.983 264.095,373.102 278.86,361.982 282.162,359.524 
  297.384,348.387 300.759,345.947 315.909,335.177 319.905,332.369 334.433,322.333 339.621,318.792 352.957,309.837 359.926,305.215 371.481,297.672 380.842,291.637 
  390.005,285.823 402.392,278.06 408.53,274.273 424.6,264.482 427.054,263.011 445.578,252.045 447.53,250.905 464.102,241.375 471.234,237.328 482.626,230.959 
  495.694,223.75 501.151,220.785 519.675,210.855 520.967,210.173 538.199,201.21 547.195,196.595 556.723,191.778 574.298,183.018 575.247,182.551 593.772,173.6 
  602.509,169.441 612.296,164.847 630.82,156.283 631.745,155.863 649.344,147.983 662.267,142.286 667.868,139.85 686.393,131.938 694.087,128.708 704.917,124.225 
  723.441,116.689 727.346,115.131 741.965,109.379 760.489,102.216 762.239,101.554 779.014,95.2905 797.538,88.4986 798.995,87.9763 
  "/>
<polyline clip-path="url(#clip772)" style="stroke:#df5436; stroke-linecap:butt; stroke-linejoin:round; stroke-width:4; stroke-opacity:1; fill:none" points="
  704.796,87.9763 686.393,95.4782 671.72,101.554 667.868,103.17 649.344,111.083 640.017,115.131 630.82,119.177 612.296,127.453 609.533,128.708 593.772,135.967 
  580.245,142.286 575.247,144.652 556.723,153.561 552.007,155.863 538.199,162.698 524.76,169.441 519.675,172.028 501.151,181.588 498.419,183.018 482.626,191.404 
  472.976,196.595 464.102,201.438 448.298,210.173 445.578,211.698 427.054,222.226 424.407,223.75 408.53,233.028 401.262,237.328 390.005,244.086 378.783,250.905 
  371.481,255.41 356.949,264.482 352.957,267.013 335.736,278.06 334.433,278.909 315.909,291.122 315.136,291.637 297.384,303.668 295.127,305.215 278.86,316.544 
  275.668,318.792 260.336,329.766 256.739,332.369 241.812,343.352 238.323,345.947 223.288,357.32 220.405,359.524 204.763,371.689 
  "/>
<polyline clip-path="url(#clip772)" style="stroke:#ec6726; stroke-linecap:butt; stroke-linejoin:round; stroke-width:4; stroke-opacity:1; fill:none" points="
  204.763,326.622 215.351,318.792 223.288,313.014 234.117,305.215 241.812,299.759 253.391,291.637 260.336,286.84 273.187,278.06 278.86,274.242 293.524,264.482 
  297.384,261.951 314.419,250.905 315.909,249.953 334.433,238.254 335.918,237.328 352.957,226.848 358.052,223.75 371.481,215.702 380.817,210.173 390.005,204.807 
  404.236,196.595 408.53,194.152 427.054,183.74 428.356,183.018 445.578,173.599 453.275,169.441 464.102,163.671 478.94,155.863 482.626,153.949 501.151,144.464 
  505.464,142.286 519.675,135.205 532.885,128.708 538.199,126.129 556.723,117.268 561.258,115.131 575.247,108.624 590.659,101.554 593.772,100.144 612.296,91.8892 
  621.21,87.9763 
  "/>
<polyline clip-path="url(#clip772)" style="stroke:#f57c15; stroke-linecap:butt; stroke-linejoin:round; stroke-width:4; stroke-opacity:1; fill:none" points="
  545.207,87.9763 538.199,91.264 519.675,100.076 516.613,101.554 501.151,109.112 488.992,115.131 482.626,118.323 464.102,127.734 462.21,128.708 445.578,137.388 
  436.305,142.286 427.054,147.237 411.127,155.863 408.53,157.289 390.005,167.587 386.711,169.441 371.481,178.128 363.006,183.018 352.957,188.895 339.941,196.595 
  334.433,199.899 317.494,210.173 315.909,211.148 297.384,222.675 295.676,223.75 278.86,234.484 274.453,237.328 260.336,246.567 253.779,250.905 241.812,258.938 
  233.639,264.482 223.288,271.608 214.014,278.06 204.763,284.592 
  "/>
<polyline clip-path="url(#clip772)" style="stroke:#fa9306; stroke-linecap:butt; stroke-linejoin:round; stroke-width:4; stroke-opacity:1; fill:none" points="
  204.763,245.07 216.208,237.328 223.288,232.605 236.698,223.75 241.812,220.421 257.714,210.173 260.336,208.506 278.86,196.856 279.279,196.595 297.384,185.489 
  301.456,183.018 315.909,174.364 324.222,169.441 334.433,163.473 347.596,155.863 352.957,152.804 371.481,142.353 371.601,142.286 390.005,132.165 396.363,128.708 
  408.53,122.178 421.812,115.131 427.054,112.385 445.578,102.799 448.018,101.554 464.102,93.4424 475.074,87.9763 
  "/>
<polyline clip-path="url(#clip772)" style="stroke:#fbac10; stroke-linecap:butt; stroke-linejoin:round; stroke-width:4; stroke-opacity:1; fill:none" points="
  409.595,87.9763 408.53,88.5294 390.005,98.2755 383.846,101.554 371.481,108.216 358.789,115.131 352.957,118.349 334.433,128.681 334.385,128.708 315.909,139.273 
  310.696,142.286 297.384,150.077 287.604,155.863 278.86,161.103 265.092,169.441 260.336,172.359 243.142,183.018 241.812,183.853 223.288,195.614 221.759,196.595 
  204.763,207.645 
  "/>
<polyline clip-path="url(#clip772)" style="stroke:#ab2e5d; stroke-linecap:butt; stroke-linejoin:round; stroke-width:4; stroke-opacity:1; fill:none" points="
  1213.92,1445.72 1223.59,1443.39 1242.12,1438.76 1260.64,1433.97 1267.52,1432.14 1279.17,1428.98 1297.69,1423.8 1315.93,1418.56 1316.22,1418.48 1334.74,1412.9 
  1353.26,1407.18 1360.17,1404.98 1371.79,1401.24 1390.31,1395.12 1401.27,1391.41 1408.84,1388.81 1427.36,1382.28 1439.72,1377.83 1445.88,1375.57 1464.41,1368.64 
  1475.89,1364.25 1482.93,1361.52 1501.46,1354.17 1510.11,1350.67 1519.98,1346.62 1538.51,1338.86 1542.64,1337.1 1557.03,1330.85 1573.63,1323.52 1575.55,1322.66 
  1594.08,1314.18 1603.2,1309.94 1612.6,1305.5 1631.13,1296.6 1631.6,1296.36 1649.65,1287.39 1658.76,1282.79 1668.18,1277.95 1684.94,1269.21 1686.7,1268.28 
  1705.22,1258.3 1710.1,1255.63 1723.75,1248.04 1734.35,1242.05 1742.27,1237.51 1757.78,1228.48 1760.8,1226.69 1779.32,1215.56 1780.39,1214.9 1797.84,1204.07 
  1802.21,1201.32 1816.37,1192.26 1823.32,1187.75 1834.89,1180.1 1843.75,1174.17 1853.42,1167.57 1863.52,1160.59 1871.94,1154.67 1882.67,1147.01 1890.47,1141.35 
  1901.22,1133.44 1908.99,1127.6 1919.18,1119.86 1927.51,1113.4 1936.59,1106.28 1946.04,1098.71 1953.45,1092.7 1964.56,1083.51 1969.8,1079.13 1983.09,1067.76 
  1985.65,1065.55 2001,1051.97 2001.61,1051.42 2015.83,1038.39 2020.13,1034.36 2030.2,1024.82 2038.66,1016.62 2044.14,1011.24 2057.18,998.132 
  "/>
<polyline clip-path="url(#clip772)" style="stroke:#be3852; stroke-linecap:butt; stroke-linejoin:round; stroke-width:4; stroke-opacity:1; fill:none" points="
  2057.18,1059.07 2050.08,1065.55 2038.66,1075.74 2034.83,1079.13 2020.13,1091.83 2019.11,1092.7 2002.91,1106.28 2001.61,1107.34 1986.19,1119.86 1983.09,1122.33 
  1968.98,1133.44 1964.56,1136.85 1951.24,1147.01 1946.04,1150.91 1932.97,1160.59 1927.51,1164.56 1914.13,1174.17 1908.99,1177.8 1894.72,1187.75 1890.47,1190.66 
  1874.7,1201.32 1871.94,1203.16 1854.07,1214.9 1853.42,1215.32 1834.89,1227.12 1832.74,1228.48 1816.37,1238.6 1810.7,1242.05 1797.84,1249.77 1787.95,1255.63 
  1779.32,1260.66 1764.46,1269.21 1760.8,1271.28 1742.27,1281.62 1740.14,1282.79 1723.75,1291.65 1714.92,1296.36 1705.22,1301.45 1688.82,1309.94 1686.7,1311.02 
  1668.18,1320.31 1661.67,1323.52 1649.65,1329.36 1633.5,1337.1 1631.13,1338.22 1612.6,1346.8 1604.1,1350.67 1594.08,1355.18 1575.55,1363.36 1573.49,1364.25 
  1557.03,1371.28 1541.43,1377.83 1538.51,1379.04 1519.98,1386.55 1507.79,1391.41 1501.46,1393.89 1482.93,1401.01 1472.39,1404.98 1464.41,1407.95 1445.88,1414.68 
  1434.99,1418.56 1427.36,1421.24 1408.84,1427.59 1395.26,1432.14 1390.31,1433.78 1371.79,1439.74 1353.26,1445.58 1352.82,1445.72 
  "/>
<polyline clip-path="url(#clip772)" style="stroke:#d04544; stroke-linecap:butt; stroke-linejoin:round; stroke-width:4; stroke-opacity:1; fill:none" points="
  1462.95,1445.72 1464.41,1445.19 1482.93,1438.4 1499.71,1432.14 1501.46,1431.48 1519.98,1424.31 1534.6,1418.56 1538.51,1417 1557.03,1409.47 1567.86,1404.98 
  1575.55,1401.75 1594.08,1393.84 1599.68,1391.41 1612.6,1385.71 1630.2,1377.83 1631.13,1377.41 1649.65,1368.84 1659.44,1364.25 1668.18,1360.09 1686.7,1351.14 
  1687.65,1350.67 1705.22,1341.91 1714.75,1337.1 1723.75,1332.48 1740.98,1323.52 1742.27,1322.84 1760.8,1312.91 1766.25,1309.94 1779.32,1302.73 1790.71,1296.36 
  1797.84,1292.32 1814.42,1282.79 1816.37,1281.65 1834.89,1270.68 1837.35,1269.21 1853.42,1259.42 1859.55,1255.63 1871.94,1247.87 1881.11,1242.05 1890.47,1236.02 
  1902.02,1228.48 1908.99,1223.85 1922.33,1214.9 1927.51,1211.36 1942.04,1201.32 1946.04,1198.51 1961.19,1187.75 1964.56,1185.31 1979.79,1174.17 1983.09,1171.71 
  1997.85,1160.59 2001.61,1157.71 2015.41,1147.01 2020.13,1143.28 2032.47,1133.44 2038.66,1128.4 2049.05,1119.86 2057.18,1113.04 
  "/>
<polyline clip-path="url(#clip772)" style="stroke:#df5436; stroke-linecap:butt; stroke-linejoin:round; stroke-width:4; stroke-opacity:1; fill:none" points="
  2057.18,1162 2041.54,1174.17 2038.66,1176.37 2023.62,1187.75 2020.13,1190.34 2005.21,1201.32 2001.61,1203.93 1986.28,1214.9 1983.09,1217.15 1966.82,1228.48 
  1964.56,1230.02 1946.81,1242.05 1946.04,1242.57 1927.51,1254.78 1926.21,1255.63 1908.99,1266.68 1905,1269.21 1890.47,1278.28 1883.16,1282.79 1871.94,1289.61 
  1860.69,1296.36 1853.42,1300.66 1837.54,1309.94 1834.89,1311.47 1816.37,1321.99 1813.65,1323.52 1797.84,1332.25 1788.97,1337.1 1779.32,1342.29 1763.53,1350.67 
  1760.8,1352.1 1742.27,1361.66 1737.19,1364.25 1723.75,1370.99 1709.94,1377.83 1705.22,1380.13 1686.7,1389.04 1681.7,1391.41 1668.18,1397.73 1652.41,1404.98 
  1649.65,1406.24 1631.13,1414.52 1621.93,1418.56 1612.6,1422.61 1594.08,1430.52 1590.23,1432.14 1575.55,1438.21 1557.15,1445.72 
  "/>
<polyline clip-path="url(#clip772)" style="stroke:#ec6726; stroke-linecap:butt; stroke-linejoin:round; stroke-width:4; stroke-opacity:1; fill:none" points="
  1640.74,1445.72 1649.65,1441.8 1668.18,1433.55 1671.29,1432.14 1686.7,1425.07 1700.69,1418.56 1705.22,1416.42 1723.75,1407.56 1729.06,1404.98 1742.27,1398.49 
  1756.48,1391.41 1760.8,1389.23 1779.32,1379.74 1783.01,1377.83 1797.84,1370.02 1808.67,1364.25 1816.37,1360.09 1833.59,1350.67 1834.89,1349.95 1853.42,1339.54 
  1857.71,1337.1 1871.94,1328.88 1881.13,1323.52 1890.47,1317.99 1903.89,1309.94 1908.99,1306.84 1926.03,1296.36 1927.51,1295.44 1946.04,1283.74 1947.53,1282.79 
  1964.56,1271.74 1968.42,1269.21 1983.09,1259.45 1988.76,1255.63 2001.61,1246.85 2008.56,1242.05 2020.13,1233.93 2027.83,1228.48 2038.66,1220.68 2046.6,1214.9 
  2057.18,1207.07 
  "/>
<polyline clip-path="url(#clip772)" style="stroke:#f57c15; stroke-linecap:butt; stroke-linejoin:round; stroke-width:4; stroke-opacity:1; fill:none" points="
  2057.18,1249.1 2047.93,1255.63 2038.66,1262.08 2028.31,1269.21 2020.13,1274.75 2008.17,1282.79 2001.61,1287.12 1987.49,1296.36 1983.09,1299.21 1966.27,1309.94 
  1964.56,1311.02 1946.04,1322.54 1944.45,1323.52 1927.51,1333.79 1922.01,1337.1 1908.99,1344.8 1898.94,1350.67 1890.47,1355.56 1875.24,1364.25 1871.94,1366.11 
  1853.42,1376.4 1850.82,1377.83 1834.89,1386.46 1825.64,1391.41 1816.37,1396.3 1799.74,1404.98 1797.84,1405.96 1779.32,1415.37 1772.95,1418.56 1760.8,1424.58 
  1745.33,1432.14 1742.27,1433.62 1723.75,1442.43 1716.74,1445.72 
  "/>
<polyline clip-path="url(#clip772)" style="stroke:#fa9306; stroke-linecap:butt; stroke-linejoin:round; stroke-width:4; stroke-opacity:1; fill:none" points="
  1786.87,1445.72 1797.84,1440.25 1813.93,1432.14 1816.37,1430.89 1834.89,1421.31 1840.13,1418.56 1853.42,1411.51 1865.58,1404.98 1871.94,1401.53 1890.35,1391.41 
  1890.47,1391.34 1908.99,1380.89 1914.35,1377.83 1927.51,1370.22 1937.72,1364.25 1946.04,1359.33 1960.49,1350.67 1964.56,1348.2 1982.67,1337.1 1983.09,1336.84 
  2001.61,1325.19 2004.23,1323.52 2020.13,1313.27 2025.25,1309.94 2038.66,1301.09 2045.74,1296.36 2057.18,1288.62 
  "/>
<polyline clip-path="url(#clip772)" style="stroke:#fbac10; stroke-linecap:butt; stroke-linejoin:round; stroke-width:4; stroke-opacity:1; fill:none" points="
  2057.18,1326.05 2040.19,1337.1 2038.66,1338.08 2020.13,1349.84 2018.81,1350.67 2001.61,1361.33 1996.85,1364.25 1983.09,1372.59 1974.34,1377.83 1964.56,1383.61 
  1951.25,1391.41 1946.04,1394.42 1927.56,1404.98 1927.51,1405.01 1908.99,1415.34 1903.16,1418.56 1890.47,1425.48 1878.1,1432.14 1871.94,1435.42 1853.42,1445.16 
  1852.35,1445.72 
  "/>
<polyline clip-path="url(#clip772)" style="stroke:#58106d; stroke-linecap:butt; stroke-linejoin:round; stroke-width:4; stroke-opacity:1; fill:none" points="
  1501.46,1162.8 1482.93,1171.64 1477.52,1174.17 1464.41,1180.15 1447.39,1187.75 1445.88,1188.4 1427.36,1196.28 1415.21,1201.32 1408.84,1203.91 1390.31,1211.24 
  1380.78,1214.9 1371.79,1218.29 1353.26,1225.06 1343.62,1228.48 1334.74,1231.56 1316.22,1237.79 1303.12,1242.05 1297.69,1243.79 1279.17,1249.48 1260.64,1254.98 
  1258.36,1255.63 1242.12,1260.16 1223.59,1265.13 1207.69,1269.21 1205.07,1269.87 1186.55,1274.3 1168.02,1278.53 1149.5,1282.54 1148.31,1282.79 1130.97,1286.25 
  1112.45,1289.73 1093.92,1292.99 1075.4,1296.02 1073.14,1296.36 1056.88,1298.76 1038.35,1301.26 1019.83,1303.52 1001.3,1305.55 982.78,1307.32 964.256,1308.85 
  948.252,1309.94 945.731,1310.11 927.207,1311.09 908.683,1311.81 890.159,1312.26 871.635,1312.44 853.11,1312.33 834.586,1311.95 816.062,1311.27 797.538,1310.3 
  792.364,1309.94 779.014,1308.99 760.489,1307.35 741.965,1305.39 723.441,1303.09 704.917,1300.44 686.393,1297.44 680.423,1296.36 667.868,1294.01 649.344,1290.16 
  630.82,1285.92 618.302,1282.79 612.296,1281.22 593.772,1275.99 575.247,1270.32 571.87,1269.21 556.723,1264.01 538.199,1257.18 534.253,1255.63 519.675,1249.63 
  502.434,1242.05 501.151,1241.46 482.626,1232.41 475.035,1228.48 464.102,1222.51 450.904,1214.9 445.578,1211.66 429.487,1201.32 427.054,1199.67 410.384,1187.75 
  408.53,1186.34 393.273,1174.17 390.005,1171.39 377.886,1160.59 371.481,1154.47 364.002,1147.01 352.957,1135.14 351.436,1133.44 340.202,1119.86 334.433,1112.27 
  330.058,1106.28 320.981,1092.7 315.909,1084.34 312.863,1079.13 305.704,1065.55 299.341,1051.97 297.384,1047.25 293.845,1038.39 289.131,1024.82 285.127,1011.24 
  281.814,997.662 279.173,984.084 278.86,981.96 277.229,970.507 275.913,956.93 275.204,943.352 275.087,929.775 275.545,916.197 276.566,902.62 278.136,889.043 
  278.86,884.395 280.273,875.465 282.961,861.888 286.17,848.31 289.888,834.733 294.101,821.156 297.384,811.689 298.831,807.578 304.12,794.001 309.879,780.423 
  315.909,767.261 316.101,766.846 322.92,753.269 330.184,739.691 334.433,732.225 337.963,726.114 346.271,712.536 352.957,702.156 355.047,698.959 364.397,685.382 
  371.481,675.546 374.217,671.804 384.606,658.227 390.005,651.455 395.514,644.649 406.939,631.072 408.53,629.255 418.984,617.495 427.054,608.725 431.546,603.917 
  444.672,590.34 445.578,589.435 458.461,576.762 464.102,571.383 472.835,563.185 482.626,554.266 487.822,549.608 501.151,538.002 503.452,536.03 519.675,522.52 
  519.757,522.453 536.809,508.875 538.199,507.797 554.59,495.298 556.723,493.713 573.138,481.721 575.247,480.218 592.491,468.143 593.772,467.269 612.296,454.835 
  612.704,454.566 630.82,442.917 633.875,440.989 649.344,431.45 656.019,427.411 667.868,420.404 679.193,413.834 686.393,409.75 703.459,400.256 704.917,399.463 
  723.441,389.604 729.054,386.679 741.965,380.096 755.972,373.102 760.489,370.893 779.014,362.049 784.43,359.524 797.538,353.541 814.554,345.947 816.062,345.288 
  834.586,337.411 846.738,332.369 853.11,329.779 871.635,322.457 881.171,318.792 890.159,315.406 908.683,308.633 918.327,305.215 927.207,302.128 945.731,295.898 
  958.822,291.637 964.256,289.903 982.78,284.21 1001.3,278.71 1003.59,278.06 1019.83,273.53 1038.35,268.566 1054.26,264.482 1056.88,263.823 1075.4,259.388 
  1093.92,255.162 1112.45,251.147 1113.64,250.905 1130.97,247.442 1149.5,243.961 1168.02,240.701 1186.55,237.667 1188.8,237.328 1205.07,234.929 1223.59,232.43 
  1242.12,230.167 1260.64,228.145 1279.17,226.369 1297.69,224.845 1313.7,223.75 1316.22,223.581 1334.74,222.602 1353.26,221.885 1371.79,221.434 1390.31,221.257 
  1408.84,221.358 1427.36,221.743 1445.88,222.42 1464.41,223.395 1469.58,223.75 1482.93,224.701 1501.46,226.338 1519.98,228.303 1538.51,230.605 1557.03,233.252 
  1575.55,236.251 1581.52,237.328 1594.08,239.683 1612.6,243.532 1631.13,247.774 1643.64,250.905 1649.65,252.471 1668.18,257.701 1686.7,263.374 1690.08,264.482 
  1705.22,269.678 1723.75,276.51 1727.69,278.06 1742.27,284.059 1759.51,291.637 1760.8,292.23 1779.32,301.282 1786.91,305.215 1797.84,311.178 1811.04,318.792 
  1816.37,322.036 1832.46,332.369 1834.89,334.024 1851.56,345.947 1853.42,347.357 1868.67,359.524 1871.94,362.305 1884.06,373.102 1890.47,379.218 1897.94,386.679 
  1908.99,398.552 1910.51,400.256 1921.75,413.834 1927.51,421.423 1931.89,427.411 1940.97,440.989 1946.04,449.351 1949.08,454.566 1956.24,468.143 1962.61,481.721 
  1964.56,486.443 1968.1,495.298 1972.82,508.875 1976.82,522.453 1980.13,536.03 1982.77,549.608 1983.09,551.732 1984.72,563.185 1986.03,576.762 1986.74,590.34 
  1986.86,603.917 1986.4,617.495 1985.38,631.072 1983.81,644.649 1983.09,649.297 1981.67,658.227 1978.99,671.804 1975.78,685.382 1972.06,698.959 1967.85,712.536 
  1964.56,722.003 1963.12,726.114 1957.83,739.691 1952.07,753.269 1946.04,766.431 1945.85,766.846 1939.03,780.423 1931.76,794.001 1927.51,801.467 1923.98,807.578 
  1915.68,821.156 1908.99,831.536 1906.9,834.733 1897.55,848.31 1890.47,858.146 1887.73,861.888 1877.34,875.465 1871.94,882.237 1866.43,889.043 1855.01,902.62 
  1853.42,904.437 1842.96,916.197 1834.89,924.967 1830.4,929.775 1817.27,943.352 1816.37,944.257 1803.49,956.93 1797.84,962.309 1789.11,970.507 1779.32,979.426 
  1774.12,984.084 1760.8,995.69 1758.49,997.662 1742.27,1011.17 1742.19,1011.24 1725.14,1024.82 1723.75,1025.89 1707.36,1038.39 1705.22,1039.98 1688.81,1051.97 
  1686.7,1053.47 1669.46,1065.55 1668.18,1066.42 1649.65,1078.86 1649.24,1079.13 1631.13,1090.77 1628.07,1092.7 1612.6,1102.24 1605.93,1106.28 1594.08,1113.29 
  1582.75,1119.86 1575.55,1123.94 1558.49,1133.44 1557.03,1134.23 1538.51,1144.09 1532.89,1147.01 1519.98,1153.6 1505.97,1160.59 1501.46,1162.8 
  "/>
<polyline clip-path="url(#clip772)" style="stroke:#430a68; stroke-linecap:butt; stroke-linejoin:round; stroke-width:4; stroke-opacity:1; fill:none" points="
  1464.41,1120.01 1445.88,1128.83 1435.98,1133.44 1427.36,1137.35 1408.84,1145.53 1405.39,1147.01 1390.31,1153.33 1372.5,1160.59 1371.79,1160.88 1353.26,1168.01 
  1336.8,1174.17 1334.74,1174.92 1316.22,1181.45 1297.76,1187.75 1297.69,1187.77 1279.17,1193.7 1260.64,1199.41 1254.16,1201.32 1242.12,1204.8 1223.59,1209.92 
  1205.07,1214.81 1204.7,1214.9 1186.55,1219.33 1168.02,1223.63 1149.5,1227.68 1145.62,1228.48 1130.97,1231.41 1112.45,1234.87 1093.92,1238.09 1075.4,1241.05 
  1068.46,1242.05 1056.88,1243.7 1038.35,1246.06 1019.83,1248.16 1001.3,1249.98 982.78,1251.53 964.256,1252.79 945.731,1253.76 927.207,1254.42 908.683,1254.79 
  890.159,1254.83 871.635,1254.56 853.11,1253.95 834.586,1253.01 816.062,1251.71 797.538,1250.06 779.014,1248.05 760.489,1245.66 741.965,1242.88 737.122,1242.05 
  723.441,1239.62 704.917,1235.92 686.393,1231.77 673.064,1228.48 667.868,1227.13 649.344,1221.89 630.82,1216.15 627.085,1214.9 612.296,1209.7 593.772,1202.65 
  590.529,1201.32 575.247,1194.75 560.077,1187.75 556.723,1186.11 538.199,1176.47 534.041,1174.17 519.675,1165.73 511.427,1160.59 501.151,1153.77 491.536,1147.01 
  482.626,1140.32 473.943,1133.44 464.102,1125.05 458.307,1119.86 445.578,1107.53 444.352,1106.28 432.017,1092.7 427.054,1086.73 421.015,1079.13 411.222,1065.55 
  408.53,1061.42 402.628,1051.97 395.057,1038.39 390.005,1028.12 388.443,1024.82 382.83,1011.24 378.041,997.662 374.051,984.084 371.481,973.256 370.853,970.507 
  368.457,956.93 366.771,943.352 365.773,929.775 365.444,916.197 365.766,902.62 366.722,889.043 368.293,875.465 370.463,861.888 371.481,856.895 373.261,848.31 
  376.667,834.733 380.639,821.156 385.16,807.578 390.005,794.572 390.222,794.001 395.942,780.423 402.181,766.846 408.53,754.069 408.934,753.269 416.352,739.691 
  424.258,726.114 427.054,721.611 432.782,712.536 441.847,698.959 445.578,693.669 451.52,685.382 461.743,671.804 464.102,668.82 472.622,658.227 482.626,646.299 
  484.033,644.649 496.141,631.072 501.151,625.672 508.867,617.495 519.675,606.455 522.203,603.917 536.239,590.34 538.199,588.51 551.008,576.762 556.723,571.689 
  566.478,563.185 575.247,555.778 582.689,549.608 593.772,540.695 599.682,536.03 612.296,526.367 617.502,522.453 630.82,512.728 636.199,508.875 649.344,499.722 
  655.823,495.298 667.868,487.297 676.433,481.721 686.393,475.407 698.088,468.143 704.917,464.011 720.856,454.566 723.441,453.072 741.965,442.611 744.907,440.989 
  760.489,432.604 770.361,427.411 779.014,422.969 797.225,413.834 797.538,413.68 816.062,404.858 825.966,400.256 834.586,396.344 853.11,388.158 856.56,386.679 
  871.635,380.363 889.442,373.102 890.159,372.816 908.683,365.682 925.146,359.524 927.207,358.77 945.731,352.243 964.185,345.947 964.256,345.923 982.78,339.996 
  1001.3,334.282 1007.78,332.369 1019.83,328.891 1038.35,323.776 1056.88,318.886 1057.25,318.792 1075.4,314.358 1093.92,310.065 1112.45,306.008 1116.33,305.215 
  1130.97,302.281 1149.5,298.819 1168.02,295.605 1186.55,292.644 1193.49,291.637 1205.07,289.994 1223.59,287.631 1242.12,285.535 1260.64,283.711 1279.17,282.165 
  1297.69,280.905 1316.22,279.937 1334.74,279.268 1353.26,278.907 1371.79,278.86 1390.31,279.135 1408.84,279.741 1427.36,280.686 1445.88,281.978 1464.41,283.628 
  1482.93,285.644 1501.46,288.035 1519.98,290.813 1524.83,291.637 1538.51,294.069 1557.03,297.776 1575.55,301.92 1588.88,305.215 1594.08,306.559 1612.6,311.802 
  1631.13,317.542 1634.86,318.792 1649.65,323.992 1668.18,331.046 1671.42,332.369 1686.7,338.94 1701.87,345.947 1705.22,347.584 1723.75,357.223 1727.91,359.524 
  1742.27,367.96 1750.52,373.102 1760.8,379.924 1770.41,386.679 1779.32,393.373 1788,400.256 1797.84,408.64 1803.64,413.834 1816.37,426.165 1817.59,427.411 
  1829.93,440.989 1834.89,446.961 1840.93,454.566 1850.72,468.143 1853.42,472.272 1859.32,481.721 1866.89,495.298 1871.94,505.567 1873.5,508.875 1879.12,522.453 
  1883.91,536.03 1887.9,549.608 1890.47,560.436 1891.09,563.185 1893.49,576.762 1895.18,590.34 1896.17,603.917 1896.5,617.495 1896.18,631.072 1895.22,644.649 
  1893.65,658.227 1891.48,671.804 1890.47,676.797 1888.69,685.382 1885.28,698.959 1881.31,712.536 1876.79,726.114 1871.94,739.12 1871.72,739.691 1866,753.269 
  1859.77,766.846 1853.42,779.623 1853.01,780.423 1845.59,794.001 1837.69,807.578 1834.89,812.081 1829.17,821.156 1820.1,834.733 1816.37,840.023 1810.43,848.31 
  1800.2,861.888 1797.84,864.872 1789.33,875.465 1779.32,887.393 1777.91,889.043 1765.81,902.62 1760.8,908.02 1753.08,916.197 1742.27,927.237 1739.74,929.775 
  1725.71,943.352 1723.75,945.182 1710.94,956.93 1705.22,962.003 1695.47,970.507 1686.7,977.913 1679.26,984.084 1668.18,992.997 1662.26,997.662 1649.65,1007.33 
  1644.44,1011.24 1631.13,1020.96 1625.75,1024.82 1612.6,1033.97 1606.12,1038.39 1594.08,1046.4 1585.51,1051.97 1575.55,1058.29 1563.86,1065.55 1557.03,1069.68 
  1541.09,1079.13 1538.51,1080.62 1519.98,1091.08 1517.04,1092.7 1501.46,1101.09 1491.59,1106.28 1482.93,1110.72 1464.72,1119.86 1464.41,1120.01 
  "/>
<polyline clip-path="url(#clip772)" style="stroke:#2d0a58; stroke-linecap:butt; stroke-linejoin:round; stroke-width:4; stroke-opacity:1; fill:none" points="
  1427.36,1068.89 1408.84,1077.93 1406.31,1079.13 1390.31,1086.49 1376.4,1092.7 1371.79,1094.71 1353.26,1102.5 1343.95,1106.28 1334.74,1109.93 1316.22,1117 
  1308.42,1119.86 1297.69,1123.7 1279.17,1130.07 1268.93,1133.44 1260.64,1136.1 1242.12,1141.77 1224.19,1147.01 1223.59,1147.18 1205.07,1152.17 1186.55,1156.9 
  1171.18,1160.59 1168.02,1161.33 1149.5,1165.38 1130.97,1169.15 1112.45,1172.63 1103.52,1174.17 1093.92,1175.78 1075.4,1178.58 1056.88,1181.08 1038.35,1183.27 
  1019.83,1185.15 1001.3,1186.71 985.648,1187.75 982.78,1187.93 964.256,1188.78 945.731,1189.29 927.207,1189.45 908.683,1189.26 890.159,1188.69 871.748,1187.75 
  871.635,1187.74 853.11,1186.35 834.586,1184.54 816.062,1182.29 797.538,1179.6 779.014,1176.46 767.27,1174.17 760.489,1172.78 741.965,1168.49 723.441,1163.67 
  712.741,1160.59 704.917,1158.21 686.393,1152 672.8,1147.01 667.868,1145.09 649.344,1137.26 640.994,1133.44 630.82,1128.47 614.468,1119.86 612.296,1118.63 
  593.772,1107.44 591.976,1106.28 575.247,1094.66 572.611,1092.7 556.723,1079.96 555.738,1079.13 541.064,1065.55 538.199,1062.64 528.248,1051.97 519.675,1041.79 
  516.966,1038.39 507.213,1024.82 501.151,1015.28 498.705,1011.24 491.478,997.662 485.276,984.084 482.626,977.226 480.146,970.507 476.022,956.93 472.784,943.352 
  470.402,929.775 468.847,916.197 468.092,902.62 468.111,889.043 468.879,875.465 470.372,861.888 472.566,848.31 475.441,834.733 478.975,821.156 482.626,809.291 
  483.164,807.578 488.098,794.001 493.647,780.423 499.793,766.846 501.151,764.127 506.676,753.269 514.174,739.691 519.675,730.447 522.303,726.114 531.148,712.536 
  538.199,702.355 540.596,698.959 550.785,685.382 556.723,677.881 561.629,671.804 573.156,658.227 575.247,655.884 585.474,644.649 593.772,635.922 598.477,631.072 
  612.21,617.495 612.296,617.413 626.84,603.917 630.82,600.362 642.273,590.34 649.344,584.374 658.559,576.762 667.868,569.339 675.755,563.185 686.393,555.162 
  693.92,549.608 704.917,541.757 713.122,536.03 723.441,529.054 733.432,522.453 741.965,516.987 754.93,508.875 760.489,505.5 777.703,495.298 779.014,494.544 
  797.538,484.166 802.019,481.721 816.062,474.275 827.936,468.143 834.586,464.803 853.11,455.76 855.637,454.566 871.635,447.206 885.548,440.989 890.159,438.982 
  908.683,431.196 917.998,427.411 927.207,423.766 945.731,416.694 953.523,413.834 964.256,409.993 982.78,403.627 993.017,400.256 1001.3,397.596 1019.83,391.924 
  1037.76,386.679 1038.35,386.51 1056.88,381.522 1075.4,376.795 1090.76,373.102 1093.92,372.36 1112.45,368.315 1130.97,364.545 1149.5,361.058 1158.43,359.524 
  1168.02,357.916 1186.55,355.116 1205.07,352.614 1223.59,350.418 1242.12,348.537 1260.64,346.98 1276.3,345.947 1279.17,345.762 1297.69,344.91 1316.22,344.399 
  1334.74,344.237 1353.26,344.436 1371.79,345.004 1390.2,345.947 1390.31,345.953 1408.84,347.344 1427.36,349.155 1445.88,351.398 1464.41,354.087 1482.93,357.236 
  1494.68,359.524 1501.46,360.915 1519.98,365.2 1538.51,370.017 1549.21,373.102 1557.03,375.485 1575.55,381.688 1589.15,386.679 1594.08,388.6 1612.6,396.433 
  1620.95,400.256 1631.13,405.22 1647.48,413.834 1649.65,415.058 1668.18,426.252 1669.97,427.411 1686.7,439.037 1689.34,440.989 1705.22,453.727 1706.21,454.566 
  1720.88,468.143 1723.75,471.05 1733.7,481.721 1742.27,491.906 1744.98,495.298 1754.73,508.875 1760.8,518.412 1763.24,522.453 1770.47,536.03 1776.67,549.608 
  1779.32,556.466 1781.8,563.185 1785.92,576.762 1789.16,590.34 1791.54,603.917 1793.1,617.495 1793.85,631.072 1793.84,644.649 1793.07,658.227 1791.58,671.804 
  1789.38,685.382 1786.51,698.959 1782.97,712.536 1779.32,724.401 1778.78,726.114 1773.85,739.691 1768.3,753.269 1762.15,766.846 1760.8,769.565 1755.27,780.423 
  1747.77,794.001 1742.27,803.245 1739.64,807.578 1730.8,821.156 1723.75,831.337 1721.35,834.733 1711.16,848.31 1705.22,855.811 1700.32,861.888 1688.79,875.465 
  1686.7,877.808 1676.47,889.043 1668.18,897.77 1663.47,902.62 1649.74,916.197 1649.65,916.279 1635.11,929.775 1631.13,933.33 1619.67,943.352 1612.6,949.318 
  1603.39,956.93 1594.08,964.353 1586.19,970.507 1575.55,978.53 1568.03,984.084 1557.03,991.935 1548.82,997.662 1538.51,1004.64 1528.51,1011.24 1519.98,1016.71 
  1507.02,1024.82 1501.46,1028.19 1484.24,1038.39 1482.93,1039.15 1464.41,1049.53 1459.93,1051.97 1445.88,1059.42 1434.01,1065.55 1427.36,1068.89 
  "/>
<polyline clip-path="url(#clip772)" style="stroke:#170b3b; stroke-linecap:butt; stroke-linejoin:round; stroke-width:4; stroke-opacity:1; fill:none" points="
  1371.79,1014.04 1353.26,1022.99 1349.33,1024.82 1334.74,1031.38 1318.55,1038.39 1316.22,1039.38 1297.69,1046.8 1284.26,1051.97 1279.17,1053.87 1260.64,1060.44 
  1245.52,1065.55 1242.12,1066.66 1223.59,1072.38 1205.07,1077.79 1200.19,1079.13 1186.55,1082.73 1168.02,1087.3 1149.5,1091.54 1143.92,1092.7 1130.97,1095.32 
  1112.45,1098.72 1093.92,1101.76 1075.4,1104.44 1060.55,1106.28 1056.88,1106.72 1038.35,1108.55 1019.83,1110 1001.3,1111.04 982.78,1111.66 964.256,1111.85 
  945.731,1111.6 927.207,1110.89 908.683,1109.7 890.159,1108.02 875.461,1106.28 871.635,1105.8 853.11,1102.94 834.586,1099.49 816.062,1095.44 805.154,1092.7 
  797.538,1090.66 779.014,1085.03 761.787,1079.13 760.489,1078.65 741.965,1071.11 729.642,1065.55 723.441,1062.53 704.917,1052.62 703.804,1051.97 686.393,1040.95 
  682.663,1038.39 667.868,1027.24 664.878,1024.82 649.796,1011.24 649.344,1010.79 637.138,997.662 630.82,989.946 626.317,984.084 617.226,970.507 612.296,961.888 
  609.622,956.93 603.471,943.352 598.508,929.775 594.68,916.197 593.772,911.736 592.011,902.62 590.379,889.043 589.707,875.465 589.958,861.888 591.097,848.31 
  593.09,834.733 593.772,831.478 595.984,821.156 599.721,807.578 604.244,794.001 609.524,780.423 612.296,774.203 615.651,766.846 622.602,753.269 630.248,739.691 
  630.82,738.768 638.844,726.114 648.121,712.536 649.344,710.879 658.353,698.959 667.868,687.128 669.307,685.382 681.236,671.804 686.393,666.254 694.035,658.227 
  704.917,647.37 707.712,644.649 722.379,631.072 723.441,630.135 738.14,617.495 741.965,614.347 754.969,603.917 760.489,599.673 772.953,590.34 779.014,585.981 
  792.185,576.762 797.538,573.159 812.774,563.185 816.062,561.112 834.586,549.765 834.851,549.608 853.11,539.17 858.776,536.03 871.635,529.152 884.566,522.453 
  890.159,519.653 908.683,510.702 912.614,508.875 927.207,502.315 943.394,495.298 945.731,494.317 964.256,486.887 977.684,481.721 982.78,479.821 1001.3,473.254 
  1016.43,468.143 1019.83,467.029 1038.35,461.31 1056.88,455.898 1061.76,454.566 1075.4,450.958 1093.92,446.391 1112.45,442.153 1118.03,440.989 1130.97,438.369 
  1149.5,434.973 1168.02,431.93 1186.55,429.252 1201.4,427.411 1205.07,426.97 1223.59,425.139 1242.12,423.697 1260.64,422.656 1279.17,422.032 1297.69,421.838 
  1316.22,422.088 1334.74,422.8 1353.26,423.989 1371.79,425.673 1386.49,427.411 1390.31,427.891 1408.84,430.753 1427.36,434.197 1445.88,438.247 1456.79,440.989 
  1464.41,443.032 1482.93,448.66 1500.16,454.566 1501.46,455.044 1519.98,462.585 1532.3,468.143 1538.51,471.167 1557.03,481.074 1558.14,481.721 1575.55,492.74 
  1579.28,495.298 1594.08,506.447 1597.07,508.875 1612.15,522.453 1612.6,522.906 1624.81,536.03 1631.13,543.746 1635.63,549.608 1644.72,563.185 1649.65,571.804 
  1652.32,576.762 1658.48,590.34 1663.44,603.917 1667.27,617.495 1668.18,621.956 1669.94,631.072 1671.57,644.649 1672.24,658.227 1671.99,671.804 1670.85,685.382 
  1668.86,698.959 1668.18,702.214 1665.96,712.536 1662.23,726.114 1657.7,739.691 1652.42,753.269 1649.65,759.489 1646.3,766.846 1639.34,780.423 1631.7,794.001 
  1631.13,794.924 1623.1,807.578 1613.83,821.156 1612.6,822.813 1603.59,834.733 1594.08,846.564 1592.64,848.31 1580.71,861.888 1575.55,867.437 1567.91,875.465 
  1557.03,886.322 1554.23,889.043 1539.57,902.62 1538.51,903.557 1523.81,916.197 1519.98,919.345 1506.98,929.775 1501.46,934.019 1488.99,943.352 1482.93,947.711 
  1469.76,956.93 1464.41,960.533 1449.17,970.507 1445.88,972.58 1427.36,983.927 1427.1,984.084 1408.84,994.522 1403.17,997.662 1390.31,1004.54 1377.38,1011.24 
  1371.79,1014.04 
  "/>
<polyline clip-path="url(#clip772)" style="stroke:#07051d; stroke-linecap:butt; stroke-linejoin:round; stroke-width:4; stroke-opacity:1; fill:none" points="
  1297.69,943.428 1279.17,952.02 1268.03,956.93 1260.64,960.039 1242.12,967.38 1233.7,970.507 1223.59,974.093 1205.07,980.213 1192.4,984.084 1186.55,985.798 
  1168.02,990.727 1149.5,995.2 1138.01,997.662 1130.97,999.108 1112.45,1002.4 1093.92,1005.18 1075.4,1007.45 1056.88,1009.16 1038.35,1010.29 1019.83,1010.81 
  1001.3,1010.69 982.78,1009.9 964.256,1008.41 945.731,1006.17 927.207,1003.14 908.683,999.28 902.274,997.662 890.159,994.305 871.635,988.191 860.966,984.084 
  853.11,980.728 834.586,971.632 832.553,970.507 816.062,960.222 811.35,956.93 797.538,945.874 794.692,943.352 781.539,929.775 779.014,926.673 771.224,916.197 
  763.055,902.62 760.489,897.178 756.953,889.043 752.625,875.465 749.823,861.888 748.46,848.31 748.455,834.733 749.734,821.156 752.225,807.578 755.865,794.001 
  760.489,780.728 760.599,780.423 766.655,766.846 773.73,753.269 779.014,744.401 781.915,739.691 791.327,726.114 797.538,717.993 801.854,712.536 813.59,698.959 
  816.062,696.326 826.696,685.382 834.586,677.815 841.08,671.804 853.11,661.379 856.885,658.227 871.635,646.646 874.277,644.649 890.159,633.327 893.449,631.072 
  908.683,621.193 914.626,617.495 927.207,610.064 938.072,603.917 945.731,599.794 964.102,590.34 964.256,590.264 982.78,581.672 993.918,576.762 1001.3,573.653 
  1019.83,566.312 1028.25,563.185 1038.35,559.599 1056.88,553.478 1069.54,549.608 1075.4,547.894 1093.92,542.965 1112.45,538.492 1123.93,536.03 1130.97,534.584 
  1149.5,531.295 1168.02,528.508 1186.55,526.246 1205.07,524.537 1223.59,523.406 1242.12,522.883 1260.64,522.999 1279.17,523.787 1297.69,525.283 1316.22,527.525 
  1334.74,530.553 1353.26,534.412 1359.67,536.03 1371.79,539.387 1390.31,545.501 1400.98,549.608 1408.84,552.964 1427.36,562.06 1429.39,563.185 1445.88,573.47 
  1450.6,576.762 1464.41,587.817 1467.25,590.34 1480.41,603.917 1482.93,607.019 1490.72,617.495 1498.89,631.072 1501.46,636.514 1504.99,644.649 1509.32,658.227 
  1512.12,671.804 1513.49,685.382 1513.49,698.959 1512.21,712.536 1509.72,726.114 1506.08,739.691 1501.46,752.964 1501.35,753.269 1495.29,766.846 1488.22,780.423 
  1482.93,789.291 1480.03,794.001 1470.62,807.578 1464.41,815.699 1460.09,821.156 1448.36,834.733 1445.88,837.366 1435.25,848.31 1427.36,855.877 1420.87,861.888 
  1408.84,872.313 1405.06,875.465 1390.31,887.046 1387.67,889.043 1371.79,900.365 1368.5,902.62 1353.26,912.499 1347.32,916.197 1334.74,923.628 1323.87,929.775 
  1316.22,933.898 1297.84,943.352 1297.69,943.428 
  "/>
<polyline clip-path="url(#clip772)" style="stroke:#e26f46; stroke-linecap:butt; stroke-linejoin:round; stroke-width:4; stroke-opacity:1; fill:none" points="
  1130.97,766.846 1286.85,693.487 
  "/>
<polyline clip-path="url(#clip772)" style="stroke:#e26f46; stroke-linecap:butt; stroke-linejoin:round; stroke-width:4; stroke-opacity:1; fill:none" points="
  1246.61,692.53 1286.85,693.487 1261.94,725.103 
  "/>
<polyline clip-path="url(#clip772)" style="stroke:#e26f46; stroke-linecap:butt; stroke-linejoin:round; stroke-width:4; stroke-opacity:1; fill:none" points="
  1286.85,693.487 1130.97,766.846 
  "/>
<polyline clip-path="url(#clip772)" style="stroke:#e26f46; stroke-linecap:butt; stroke-linejoin:round; stroke-width:4; stroke-opacity:1; fill:none" points="
  1130.97,766.846 1231.06,881.096 
  "/>
<polyline clip-path="url(#clip772)" style="stroke:#e26f46; stroke-linecap:butt; stroke-linejoin:round; stroke-width:4; stroke-opacity:1; fill:none" points="
  1220.88,842.156 1231.06,881.096 1193.8,865.878 
  "/>
<polyline clip-path="url(#clip772)" style="stroke:#e26f46; stroke-linecap:butt; stroke-linejoin:round; stroke-width:4; stroke-opacity:1; fill:none" points="
  1231.06,881.096 1130.97,766.846 
  "/>
<defs>
  <clipPath id="clip773">
    <rect x="2160" y="47" width="73" height="1440"/>
  </clipPath>
</defs>
<polyline clip-path="url(#clip773)" style="stroke:#003b00; stroke-linecap:butt; stroke-linejoin:round; stroke-width:4; stroke-opacity:1; fill:none" points="
  2160.76,2222.75 2232.76,2222.75 
  "/>
<polyline clip-path="url(#clip773)" style="stroke:#009600; stroke-linecap:butt; stroke-linejoin:round; stroke-width:4; stroke-opacity:1; fill:none" points="
  2160.76,2149.12 2232.76,2149.12 
  "/>
<polyline clip-path="url(#clip773)" style="stroke:#08ff08; stroke-linecap:butt; stroke-linejoin:round; stroke-width:4; stroke-opacity:1; fill:none" points="
  2160.76,2075.49 2232.76,2075.49 
  "/>
<polyline clip-path="url(#clip773)" style="stroke:#77ff77; stroke-linecap:butt; stroke-linejoin:round; stroke-width:4; stroke-opacity:1; fill:none" points="
  2160.76,2001.86 2232.76,2001.86 
  "/>
<polyline clip-path="url(#clip773)" style="stroke:#e5ffe5; stroke-linecap:butt; stroke-linejoin:round; stroke-width:4; stroke-opacity:1; fill:none" points="
  2160.76,1928.23 2232.76,1928.23 
  "/>
<polyline clip-path="url(#clip773)" style="stroke:#007a7a; stroke-linecap:butt; stroke-linejoin:round; stroke-width:4; stroke-opacity:1; fill:none" points="
  2160.76,1854.6 2232.76,1854.6 
  "/>
<polyline clip-path="url(#clip773)" style="stroke:#00d5d5; stroke-linecap:butt; stroke-linejoin:round; stroke-width:4; stroke-opacity:1; fill:none" points="
  2160.76,1780.97 2232.76,1780.97 
  "/>
<polyline clip-path="url(#clip773)" style="stroke:#54ffff; stroke-linecap:butt; stroke-linejoin:round; stroke-width:4; stroke-opacity:1; fill:none" points="
  2160.76,1707.34 2232.76,1707.34 
  "/>
<polyline clip-path="url(#clip773)" style="stroke:#c3ffff; stroke-linecap:butt; stroke-linejoin:round; stroke-width:4; stroke-opacity:1; fill:none" points="
  2160.76,1633.71 2232.76,1633.71 
  "/>
<polyline clip-path="url(#clip773)" style="stroke:#007d33; stroke-linecap:butt; stroke-linejoin:round; stroke-width:4; stroke-opacity:1; fill:none" points="
  2160.76,1560.08 2232.76,1560.08 
  "/>
<polyline clip-path="url(#clip773)" style="stroke:#000003; stroke-linecap:butt; stroke-linejoin:round; stroke-width:4; stroke-opacity:1; fill:none" points="
  2160.76,1486.45 2232.76,1486.45 
  "/>
<polyline clip-path="url(#clip773)" style="stroke:#07051d; stroke-linecap:butt; stroke-linejoin:round; stroke-width:4; stroke-opacity:1; fill:none" points="
  2160.76,1412.82 2232.76,1412.82 
  "/>
<polyline clip-path="url(#clip773)" style="stroke:#170b3b; stroke-linecap:butt; stroke-linejoin:round; stroke-width:4; stroke-opacity:1; fill:none" points="
  2160.76,1339.19 2232.76,1339.19 
  "/>
<polyline clip-path="url(#clip773)" style="stroke:#2d0a58; stroke-linecap:butt; stroke-linejoin:round; stroke-width:4; stroke-opacity:1; fill:none" points="
  2160.76,1265.56 2232.76,1265.56 
  "/>
<polyline clip-path="url(#clip773)" style="stroke:#430a68; stroke-linecap:butt; stroke-linejoin:round; stroke-width:4; stroke-opacity:1; fill:none" points="
  2160.76,1191.93 2232.76,1191.93 
  "/>
<polyline clip-path="url(#clip773)" style="stroke:#58106d; stroke-linecap:butt; stroke-linejoin:round; stroke-width:4; stroke-opacity:1; fill:none" points="
  2160.76,1118.3 2232.76,1118.3 
  "/>
<polyline clip-path="url(#clip773)" style="stroke:#6d186e; stroke-linecap:butt; stroke-linejoin:round; stroke-width:4; stroke-opacity:1; fill:none" points="
  2160.76,1044.67 2232.76,1044.67 
  "/>
<polyline clip-path="url(#clip773)" style="stroke:#811f6b; stroke-linecap:butt; stroke-linejoin:round; stroke-width:4; stroke-opacity:1; fill:none" points="
  2160.76,971.039 2232.76,971.039 
  "/>
<polyline clip-path="url(#clip773)" style="stroke:#962666; stroke-linecap:butt; stroke-linejoin:round; stroke-width:4; stroke-opacity:1; fill:none" points="
  2160.76,897.41 2232.76,897.41 
  "/>
<polyline clip-path="url(#clip773)" style="stroke:#ab2e5d; stroke-linecap:butt; stroke-linejoin:round; stroke-width:4; stroke-opacity:1; fill:none" points="
  2160.76,823.78 2232.76,823.78 
  "/>
<polyline clip-path="url(#clip773)" style="stroke:#be3852; stroke-linecap:butt; stroke-linejoin:round; stroke-width:4; stroke-opacity:1; fill:none" points="
  2160.76,750.15 2232.76,750.15 
  "/>
<polyline clip-path="url(#clip773)" style="stroke:#d14643; stroke-linecap:butt; stroke-linejoin:round; stroke-width:4; stroke-opacity:1; fill:none" points="
  2160.76,676.52 2232.76,676.52 
  "/>
<polyline clip-path="url(#clip773)" style="stroke:#e05634; stroke-linecap:butt; stroke-linejoin:round; stroke-width:4; stroke-opacity:1; fill:none" points="
  2160.76,602.89 2232.76,602.89 
  "/>
<polyline clip-path="url(#clip773)" style="stroke:#ed6825; stroke-linecap:butt; stroke-linejoin:round; stroke-width:4; stroke-opacity:1; fill:none" points="
  2160.76,529.261 2232.76,529.261 
  "/>
<polyline clip-path="url(#clip773)" style="stroke:#f57e14; stroke-linecap:butt; stroke-linejoin:round; stroke-width:4; stroke-opacity:1; fill:none" points="
  2160.76,455.631 2232.76,455.631 
  "/>
<polyline clip-path="url(#clip773)" style="stroke:#fa9506; stroke-linecap:butt; stroke-linejoin:round; stroke-width:4; stroke-opacity:1; fill:none" points="
  2160.76,382.001 2232.76,382.001 
  "/>
<polyline clip-path="url(#clip773)" style="stroke:#fbae12; stroke-linecap:butt; stroke-linejoin:round; stroke-width:4; stroke-opacity:1; fill:none" points="
  2160.76,308.371 2232.76,308.371 
  "/>
<path clip-path="url(#clip770)" d="M2280.7 1468.62 Q2277.09 1468.62 2275.26 1472.18 Q2273.45 1475.72 2273.45 1482.85 Q2273.45 1489.96 2275.26 1493.53 Q2277.09 1497.07 2280.7 1497.07 Q2284.33 1497.07 2286.14 1493.53 Q2287.97 1489.96 2287.97 1482.85 Q2287.97 1475.72 2286.14 1472.18 Q2284.33 1468.62 2280.7 1468.62 M2280.7 1464.91 Q2286.51 1464.91 2289.57 1469.52 Q2292.64 1474.1 2292.64 1482.85 Q2292.64 1491.58 2289.57 1496.19 Q2286.51 1500.77 2280.7 1500.77 Q2274.89 1500.77 2271.81 1496.19 Q2268.76 1491.58 2268.76 1482.85 Q2268.76 1474.1 2271.81 1469.52 Q2274.89 1464.91 2280.7 1464.91 Z" fill="#000000" fill-rule="evenodd" fill-opacity="1" /><path clip-path="url(#clip770)" d="M2269.43 1348.9 L2277.07 1348.9 L2277.07 1322.54 L2268.76 1324.21 L2268.76 1319.95 L2277.02 1318.28 L2281.7 1318.28 L2281.7 1348.9 L2289.33 1348.9 L2289.33 1352.84 L2269.43 1352.84 L2269.43 1348.9 Z" fill="#000000" fill-rule="evenodd" fill-opacity="1" /><path clip-path="url(#clip770)" d="M2308.78 1321.36 Q2305.17 1321.36 2303.34 1324.92 Q2301.53 1328.46 2301.53 1335.59 Q2301.53 1342.7 2303.34 1346.27 Q2305.17 1349.81 2308.78 1349.81 Q2312.41 1349.81 2314.22 1346.27 Q2316.05 1342.7 2316.05 1335.59 Q2316.05 1328.46 2314.22 1324.92 Q2312.41 1321.36 2308.78 1321.36 M2308.78 1317.65 Q2314.59 1317.65 2317.64 1322.26 Q2320.72 1326.84 2320.72 1335.59 Q2320.72 1344.32 2317.64 1348.93 Q2314.59 1353.51 2308.78 1353.51 Q2302.97 1353.51 2299.89 1348.93 Q2296.83 1344.32 2296.83 1335.59 Q2296.83 1326.84 2299.89 1322.26 Q2302.97 1317.65 2308.78 1317.65 Z" fill="#000000" fill-rule="evenodd" fill-opacity="1" /><path clip-path="url(#clip770)" d="M2274.38 1201.64 L2290.7 1201.64 L2290.7 1205.58 L2268.76 1205.58 L2268.76 1201.64 Q2271.42 1198.89 2276 1194.26 Q2280.61 1189.61 2281.79 1188.27 Q2284.03 1185.74 2284.91 1184.01 Q2285.82 1182.25 2285.82 1180.56 Q2285.82 1177.8 2283.87 1176.07 Q2281.95 1174.33 2278.85 1174.33 Q2276.65 1174.33 2274.2 1175.09 Q2271.77 1175.86 2268.99 1177.41 L2268.99 1172.69 Q2271.81 1171.55 2274.27 1170.97 Q2276.72 1170.39 2278.76 1170.39 Q2284.13 1170.39 2287.32 1173.08 Q2290.52 1175.77 2290.52 1180.26 Q2290.52 1182.39 2289.7 1184.31 Q2288.92 1186.21 2286.81 1188.8 Q2286.23 1189.47 2283.13 1192.69 Q2280.03 1195.88 2274.38 1201.64 Z" fill="#000000" fill-rule="evenodd" fill-opacity="1" /><path clip-path="url(#clip770)" d="M2310.51 1174.1 Q2306.9 1174.1 2305.08 1177.66 Q2303.27 1181.21 2303.27 1188.33 Q2303.27 1195.44 2305.08 1199.01 Q2306.9 1202.55 2310.51 1202.55 Q2314.15 1202.55 2315.95 1199.01 Q2317.78 1195.44 2317.78 1188.33 Q2317.78 1181.21 2315.95 1177.66 Q2314.15 1174.1 2310.51 1174.1 M2310.51 1170.39 Q2316.33 1170.39 2319.38 1175 Q2322.46 1179.58 2322.46 1188.33 Q2322.46 1197.06 2319.38 1201.67 Q2316.33 1206.25 2310.51 1206.25 Q2304.7 1206.25 2301.63 1201.67 Q2298.57 1197.06 2298.57 1188.33 Q2298.57 1179.58 2301.63 1175 Q2304.7 1170.39 2310.51 1170.39 Z" fill="#000000" fill-rule="evenodd" fill-opacity="1" /><path clip-path="url(#clip770)" d="M2284.38 1039.69 Q2287.74 1040.4 2289.61 1042.67 Q2291.51 1044.94 2291.51 1048.27 Q2291.51 1053.39 2287.99 1056.19 Q2284.47 1058.99 2277.99 1058.99 Q2275.82 1058.99 2273.5 1058.55 Q2271.21 1058.14 2268.76 1057.28 L2268.76 1052.76 Q2270.7 1053.9 2273.02 1054.48 Q2275.33 1055.06 2277.85 1055.06 Q2282.25 1055.06 2284.54 1053.32 Q2286.86 1051.58 2286.86 1048.27 Q2286.86 1045.22 2284.7 1043.51 Q2282.58 1041.77 2278.76 1041.77 L2274.73 1041.77 L2274.73 1037.93 L2278.94 1037.93 Q2282.39 1037.93 2284.22 1036.56 Q2286.05 1035.17 2286.05 1032.58 Q2286.05 1029.92 2284.15 1028.51 Q2282.27 1027.07 2278.76 1027.07 Q2276.83 1027.07 2274.64 1027.49 Q2272.44 1027.9 2269.8 1028.78 L2269.8 1024.62 Q2272.46 1023.88 2274.77 1023.51 Q2277.11 1023.14 2279.17 1023.14 Q2284.5 1023.14 2287.6 1025.57 Q2290.7 1027.97 2290.7 1032.09 Q2290.7 1034.96 2289.06 1036.95 Q2287.41 1038.92 2284.38 1039.69 Z" fill="#000000" fill-rule="evenodd" fill-opacity="1" /><path clip-path="url(#clip770)" d="M2310.38 1026.84 Q2306.76 1026.84 2304.94 1030.4 Q2303.13 1033.95 2303.13 1041.08 Q2303.13 1048.18 2304.94 1051.75 Q2306.76 1055.29 2310.38 1055.29 Q2314.01 1055.29 2315.82 1051.75 Q2317.64 1048.18 2317.64 1041.08 Q2317.64 1033.95 2315.82 1030.4 Q2314.01 1026.84 2310.38 1026.84 M2310.38 1023.14 Q2316.19 1023.14 2319.24 1027.74 Q2322.32 1032.33 2322.32 1041.08 Q2322.32 1049.8 2319.24 1054.41 Q2316.19 1058.99 2310.38 1058.99 Q2304.57 1058.99 2301.49 1054.41 Q2298.43 1049.8 2298.43 1041.08 Q2298.43 1032.33 2301.49 1027.74 Q2304.57 1023.14 2310.38 1023.14 Z" fill="#000000" fill-rule="evenodd" fill-opacity="1" /><path clip-path="url(#clip770)" d="M2284.36 880.575 L2272.55 899.024 L2284.36 899.024 L2284.36 880.575 M2283.13 876.501 L2289.01 876.501 L2289.01 899.024 L2293.94 899.024 L2293.94 902.913 L2289.01 902.913 L2289.01 911.061 L2284.36 911.061 L2284.36 902.913 L2268.76 902.913 L2268.76 898.399 L2283.13 876.501 Z" fill="#000000" fill-rule="evenodd" fill-opacity="1" /><path clip-path="url(#clip770)" d="M2311.67 879.579 Q2308.06 879.579 2306.23 883.144 Q2304.43 886.686 2304.43 893.815 Q2304.43 900.922 2306.23 904.487 Q2308.06 908.028 2311.67 908.028 Q2315.31 908.028 2317.11 904.487 Q2318.94 900.922 2318.94 893.815 Q2318.94 886.686 2317.11 883.144 Q2315.31 879.579 2311.67 879.579 M2311.67 875.876 Q2317.48 875.876 2320.54 880.482 Q2323.62 885.066 2323.62 893.815 Q2323.62 902.542 2320.54 907.149 Q2317.48 911.732 2311.67 911.732 Q2305.86 911.732 2302.78 907.149 Q2299.73 902.542 2299.73 893.815 Q2299.73 885.066 2302.78 880.482 Q2305.86 875.876 2311.67 875.876 Z" fill="#000000" fill-rule="evenodd" fill-opacity="1" /><path clip-path="url(#clip770)" d="M2270.21 729.241 L2288.57 729.241 L2288.57 733.176 L2274.5 733.176 L2274.5 741.648 Q2275.52 741.301 2276.53 741.139 Q2277.55 740.954 2278.57 740.954 Q2284.36 740.954 2287.74 744.125 Q2291.12 747.297 2291.12 752.713 Q2291.12 758.292 2287.64 761.394 Q2284.17 764.472 2277.85 764.472 Q2275.68 764.472 2273.41 764.102 Q2271.16 763.732 2268.76 762.991 L2268.76 758.292 Q2270.84 759.426 2273.06 759.982 Q2275.28 760.537 2277.76 760.537 Q2281.77 760.537 2284.1 758.431 Q2286.44 756.324 2286.44 752.713 Q2286.44 749.102 2284.1 746.996 Q2281.77 744.889 2277.76 744.889 Q2275.89 744.889 2274.01 745.306 Q2272.16 745.723 2270.21 746.602 L2270.21 729.241 Z" fill="#000000" fill-rule="evenodd" fill-opacity="1" /><path clip-path="url(#clip770)" d="M2310.33 732.32 Q2306.72 732.32 2304.89 735.885 Q2303.08 739.426 2303.08 746.556 Q2303.08 753.662 2304.89 757.227 Q2306.72 760.769 2310.33 760.769 Q2313.96 760.769 2315.77 757.227 Q2317.6 753.662 2317.6 746.556 Q2317.6 739.426 2315.77 735.885 Q2313.96 732.32 2310.33 732.32 M2310.33 728.616 Q2316.14 728.616 2319.2 733.223 Q2322.27 737.806 2322.27 746.556 Q2322.27 755.283 2319.2 759.889 Q2316.14 764.472 2310.33 764.472 Q2304.52 764.472 2301.44 759.889 Q2298.39 755.283 2298.39 746.556 Q2298.39 737.806 2301.44 733.223 Q2304.52 728.616 2310.33 728.616 Z" fill="#000000" fill-rule="evenodd" fill-opacity="1" /><path clip-path="url(#clip770)" d="M2281.09 597.398 Q2277.95 597.398 2276.09 599.551 Q2274.27 601.704 2274.27 605.454 Q2274.27 609.18 2276.09 611.356 Q2277.95 613.509 2281.09 613.509 Q2284.24 613.509 2286.07 611.356 Q2287.92 609.18 2287.92 605.454 Q2287.92 601.704 2286.07 599.551 Q2284.24 597.398 2281.09 597.398 M2290.38 582.745 L2290.38 587.005 Q2288.62 586.171 2286.81 585.732 Q2285.03 585.292 2283.27 585.292 Q2278.64 585.292 2276.19 588.417 Q2273.76 591.542 2273.41 597.861 Q2274.77 595.847 2276.83 594.782 Q2278.89 593.694 2281.37 593.694 Q2286.58 593.694 2289.59 596.866 Q2292.62 600.014 2292.62 605.454 Q2292.62 610.778 2289.47 613.995 Q2286.33 617.213 2281.09 617.213 Q2275.1 617.213 2271.93 612.63 Q2268.76 608.023 2268.76 599.296 Q2268.76 591.102 2272.64 586.241 Q2276.53 581.357 2283.08 581.357 Q2284.84 581.357 2286.63 581.704 Q2288.43 582.051 2290.38 582.745 Z" fill="#000000" fill-rule="evenodd" fill-opacity="1" /><path clip-path="url(#clip770)" d="M2310.68 585.06 Q2307.07 585.06 2305.24 588.625 Q2303.43 592.167 2303.43 599.296 Q2303.43 606.403 2305.24 609.968 Q2307.07 613.509 2310.68 613.509 Q2314.31 613.509 2316.12 609.968 Q2317.95 606.403 2317.95 599.296 Q2317.95 592.167 2316.12 588.625 Q2314.31 585.06 2310.68 585.06 M2310.68 581.357 Q2316.49 581.357 2319.54 585.963 Q2322.62 590.546 2322.62 599.296 Q2322.62 608.023 2319.54 612.63 Q2316.49 617.213 2310.68 617.213 Q2304.87 617.213 2301.79 612.63 Q2298.73 608.023 2298.73 599.296 Q2298.73 590.546 2301.79 585.963 Q2304.87 581.357 2310.68 581.357 Z" fill="#000000" fill-rule="evenodd" fill-opacity="1" /><path clip-path="url(#clip770)" d="M2268.76 434.722 L2290.98 434.722 L2290.98 436.713 L2278.43 469.282 L2273.55 469.282 L2285.35 438.657 L2268.76 438.657 L2268.76 434.722 Z" fill="#000000" fill-rule="evenodd" fill-opacity="1" /><path clip-path="url(#clip770)" d="M2310.1 437.801 Q2306.49 437.801 2304.66 441.365 Q2302.85 444.907 2302.85 452.037 Q2302.85 459.143 2304.66 462.708 Q2306.49 466.25 2310.1 466.25 Q2313.73 466.25 2315.54 462.708 Q2317.37 459.143 2317.37 452.037 Q2317.37 444.907 2315.54 441.365 Q2313.73 437.801 2310.1 437.801 M2310.1 434.097 Q2315.91 434.097 2318.96 438.703 Q2322.04 443.287 2322.04 452.037 Q2322.04 460.764 2318.96 465.37 Q2315.91 469.953 2310.1 469.953 Q2304.29 469.953 2301.21 465.37 Q2298.15 460.764 2298.15 452.037 Q2298.15 443.287 2301.21 438.703 Q2304.29 434.097 2310.1 434.097 Z" fill="#000000" fill-rule="evenodd" fill-opacity="1" /><path clip-path="url(#clip770)" d="M2280.61 305.61 Q2277.27 305.61 2275.35 307.393 Q2273.45 309.175 2273.45 312.3 Q2273.45 315.425 2275.35 317.208 Q2277.27 318.99 2280.61 318.99 Q2283.94 318.99 2285.86 317.208 Q2287.78 315.402 2287.78 312.3 Q2287.78 309.175 2285.86 307.393 Q2283.96 305.61 2280.61 305.61 M2275.93 303.62 Q2272.92 302.879 2271.23 300.819 Q2269.57 298.759 2269.57 295.796 Q2269.57 291.652 2272.51 289.245 Q2275.47 286.837 2280.61 286.837 Q2285.77 286.837 2288.71 289.245 Q2291.65 291.652 2291.65 295.796 Q2291.65 298.759 2289.96 300.819 Q2288.29 302.879 2285.31 303.62 Q2288.69 304.407 2290.56 306.698 Q2292.46 308.99 2292.46 312.3 Q2292.46 317.323 2289.38 320.009 Q2286.33 322.694 2280.61 322.694 Q2274.89 322.694 2271.81 320.009 Q2268.76 317.323 2268.76 312.3 Q2268.76 308.99 2270.65 306.698 Q2272.55 304.407 2275.93 303.62 M2274.22 296.236 Q2274.22 298.921 2275.89 300.425 Q2277.58 301.93 2280.61 301.93 Q2283.62 301.93 2285.31 300.425 Q2287.02 298.921 2287.02 296.236 Q2287.02 293.55 2285.31 292.046 Q2283.62 290.541 2280.61 290.541 Q2277.58 290.541 2275.89 292.046 Q2274.22 293.55 2274.22 296.236 Z" fill="#000000" fill-rule="evenodd" fill-opacity="1" /><path clip-path="url(#clip770)" d="M2310.77 290.541 Q2307.16 290.541 2305.33 294.106 Q2303.52 297.648 2303.52 304.777 Q2303.52 311.884 2305.33 315.448 Q2307.16 318.99 2310.77 318.99 Q2314.4 318.99 2316.21 315.448 Q2318.04 311.884 2318.04 304.777 Q2318.04 297.648 2316.21 294.106 Q2314.4 290.541 2310.77 290.541 M2310.77 286.837 Q2316.58 286.837 2319.64 291.444 Q2322.71 296.027 2322.71 304.777 Q2322.71 313.504 2319.64 318.11 Q2316.58 322.694 2310.77 322.694 Q2304.96 322.694 2301.88 318.11 Q2298.83 313.504 2298.83 304.777 Q2298.83 296.027 2301.88 291.444 Q2304.96 286.837 2310.77 286.837 Z" fill="#000000" fill-rule="evenodd" fill-opacity="1" /><path clip-path="url(#clip770)" d="M2270.98 174.045 L2270.98 169.786 Q2272.74 170.619 2274.54 171.059 Q2276.35 171.499 2278.08 171.499 Q2282.71 171.499 2285.14 168.397 Q2287.6 165.272 2287.95 158.93 Q2286.6 160.92 2284.54 161.985 Q2282.48 163.05 2279.98 163.05 Q2274.8 163.05 2271.77 159.925 Q2268.76 156.777 2268.76 151.337 Q2268.76 146.013 2271.9 142.795 Q2275.05 139.578 2280.28 139.578 Q2286.28 139.578 2289.43 144.184 Q2292.6 148.768 2292.6 157.518 Q2292.6 165.689 2288.71 170.573 Q2284.84 175.434 2278.29 175.434 Q2276.53 175.434 2274.73 175.087 Q2272.92 174.74 2270.98 174.045 M2280.28 159.393 Q2283.43 159.393 2285.26 157.24 Q2287.11 155.087 2287.11 151.337 Q2287.11 147.61 2285.26 145.457 Q2283.43 143.282 2280.28 143.282 Q2277.14 143.282 2275.28 145.457 Q2273.45 147.61 2273.45 151.337 Q2273.45 155.087 2275.28 157.24 Q2277.14 159.393 2280.28 159.393 Z" fill="#000000" fill-rule="evenodd" fill-opacity="1" /><path clip-path="url(#clip770)" d="M2311 143.282 Q2307.39 143.282 2305.56 146.846 Q2303.76 150.388 2303.76 157.518 Q2303.76 164.624 2305.56 168.189 Q2307.39 171.73 2311 171.73 Q2314.64 171.73 2316.44 168.189 Q2318.27 164.624 2318.27 157.518 Q2318.27 150.388 2316.44 146.846 Q2314.64 143.282 2311 143.282 M2311 139.578 Q2316.81 139.578 2319.87 144.184 Q2322.95 148.768 2322.95 157.518 Q2322.95 166.244 2319.87 170.851 Q2316.81 175.434 2311 175.434 Q2305.19 175.434 2302.11 170.851 Q2299.06 166.244 2299.06 157.518 Q2299.06 148.768 2302.11 144.184 Q2305.19 139.578 2311 139.578 Z" fill="#000000" fill-rule="evenodd" fill-opacity="1" /><polyline clip-path="url(#clip770)" style="stroke:#000000; stroke-linecap:butt; stroke-linejoin:round; stroke-width:4; stroke-opacity:1; fill:none" points="
  2232.76,1486.45 2232.76,1486.45 2256.76,1486.45 2232.76,1486.45 2232.76,1339.19 2256.76,1339.19 2232.76,1339.19 2232.76,1191.93 2256.76,1191.93 2232.76,1191.93 
  2232.76,1044.67 2256.76,1044.67 2232.76,1044.67 2232.76,897.41 2256.76,897.41 2232.76,897.41 2232.76,750.15 2256.76,750.15 2232.76,750.15 2232.76,602.89 
  2256.76,602.89 2232.76,602.89 2232.76,455.631 2256.76,455.631 2232.76,455.631 2232.76,308.371 2256.76,308.371 2232.76,308.371 2232.76,161.112 2256.76,161.112 
  2232.76,161.112 2232.76,47.2441 
  "/>
</svg>
