<?xml version="1.0" encoding="utf-8"?>
<svg xmlns="http://www.w3.org/2000/svg" xmlns:xlink="http://www.w3.org/1999/xlink" width="600" height="400" viewBox="0 0 2400 1600">
<defs>
  <clipPath id="clip260">
    <rect x="0" y="0" width="2400" height="1600"/>
  </clipPath>
</defs>
<path clip-path="url(#clip260)" d="
M0 1600 L2400 1600 L2400 0 L0 0  Z
  " fill="#ffffff" fill-rule="evenodd" fill-opacity="1"/>
<defs>
  <clipPath id="clip261">
    <rect x="480" y="0" width="1681" height="1600"/>
  </clipPath>
</defs>
<path clip-path="url(#clip260)" d="
M149.191 1486.45 L2112.76 1486.45 L2112.76 47.2441 L149.191 47.2441  Z
  " fill="#ffffff" fill-rule="evenodd" fill-opacity="1"/>
<defs>
  <clipPath id="clip262">
    <rect x="149" y="47" width="1965" height="1440"/>
  </clipPath>
</defs>
<polyline clip-path="url(#clip262)" style="stroke:#000000; stroke-linecap:butt; stroke-linejoin:round; stroke-width:2; stroke-opacity:0.1; fill:none" points="
  390.005,1486.45 390.005,47.2441 
  "/>
<polyline clip-path="url(#clip262)" style="stroke:#000000; stroke-linecap:butt; stroke-linejoin:round; stroke-width:2; stroke-opacity:0.1; fill:none" points="
  760.489,1486.45 760.489,47.2441 
  "/>
<polyline clip-path="url(#clip262)" style="stroke:#000000; stroke-linecap:butt; stroke-linejoin:round; stroke-width:2; stroke-opacity:0.1; fill:none" points="
  1130.97,1486.45 1130.97,47.2441 
  "/>
<polyline clip-path="url(#clip262)" style="stroke:#000000; stroke-linecap:butt; stroke-linejoin:round; stroke-width:2; stroke-opacity:0.1; fill:none" points="
  1501.46,1486.45 1501.46,47.2441 
  "/>
<polyline clip-path="url(#clip262)" style="stroke:#000000; stroke-linecap:butt; stroke-linejoin:round; stroke-width:2; stroke-opacity:0.1; fill:none" points="
  1871.94,1486.45 1871.94,47.2441 
  "/>
<polyline clip-path="url(#clip260)" style="stroke:#000000; stroke-linecap:butt; stroke-linejoin:round; stroke-width:4; stroke-opacity:1; fill:none" points="
  149.191,1486.45 2112.76,1486.45 
  "/>
<polyline clip-path="url(#clip260)" style="stroke:#000000; stroke-linecap:butt; stroke-linejoin:round; stroke-width:4; stroke-opacity:1; fill:none" points="
  390.005,1486.45 390.005,1469.18 
  "/>
<polyline clip-path="url(#clip260)" style="stroke:#000000; stroke-linecap:butt; stroke-linejoin:round; stroke-width:4; stroke-opacity:1; fill:none" points="
  760.489,1486.45 760.489,1469.18 
  "/>
<polyline clip-path="url(#clip260)" style="stroke:#000000; stroke-linecap:butt; stroke-linejoin:round; stroke-width:4; stroke-opacity:1; fill:none" points="
  1130.97,1486.45 1130.97,1469.18 
  "/>
<polyline clip-path="url(#clip260)" style="stroke:#000000; stroke-linecap:butt; stroke-linejoin:round; stroke-width:4; stroke-opacity:1; fill:none" points="
  1501.46,1486.45 1501.46,1469.18 
  "/>
<polyline clip-path="url(#clip260)" style="stroke:#000000; stroke-linecap:butt; stroke-linejoin:round; stroke-width:4; stroke-opacity:1; fill:none" points="
  1871.94,1486.45 1871.94,1469.18 
  "/>
<path clip-path="url(#clip260)" d="M358.906 1530.29 L388.582 1530.29 L388.582 1534.23 L358.906 1534.23 L358.906 1530.29 Z" fill="#000000" fill-rule="evenodd" fill-opacity="1" /><path clip-path="url(#clip260)" d="M411.522 1516.63 L399.716 1535.08 L411.522 1535.08 L411.522 1516.63 M410.295 1512.56 L416.174 1512.56 L416.174 1535.08 L421.105 1535.08 L421.105 1538.97 L416.174 1538.97 L416.174 1547.12 L411.522 1547.12 L411.522 1538.97 L395.92 1538.97 L395.92 1534.46 L410.295 1512.56 Z" fill="#000000" fill-rule="evenodd" fill-opacity="1" /><path clip-path="url(#clip260)" d="M730.432 1530.29 L760.107 1530.29 L760.107 1534.23 L730.432 1534.23 L730.432 1530.29 Z" fill="#000000" fill-rule="evenodd" fill-opacity="1" /><path clip-path="url(#clip260)" d="M774.228 1543.18 L790.547 1543.18 L790.547 1547.12 L768.603 1547.12 L768.603 1543.18 Q771.265 1540.43 775.848 1535.8 Q780.455 1531.15 781.635 1529.81 Q783.88 1527.28 784.76 1525.55 Q785.663 1523.79 785.663 1522.1 Q785.663 1519.34 783.718 1517.61 Q781.797 1515.87 778.695 1515.87 Q776.496 1515.87 774.043 1516.63 Q771.612 1517.4 768.834 1518.95 L768.834 1514.23 Q771.658 1513.09 774.112 1512.51 Q776.566 1511.93 778.603 1511.93 Q783.973 1511.93 787.168 1514.62 Q790.362 1517.31 790.362 1521.8 Q790.362 1523.93 789.552 1525.85 Q788.765 1527.74 786.658 1530.34 Q786.08 1531.01 782.978 1534.23 Q779.876 1537.42 774.228 1543.18 Z" fill="#000000" fill-rule="evenodd" fill-opacity="1" /><path clip-path="url(#clip260)" d="M1130.97 1515.64 Q1127.36 1515.64 1125.53 1519.2 Q1123.73 1522.75 1123.73 1529.87 Q1123.73 1536.98 1125.53 1540.55 Q1127.36 1544.09 1130.97 1544.09 Q1134.61 1544.09 1136.41 1540.55 Q1138.24 1536.98 1138.24 1529.87 Q1138.24 1522.75 1136.41 1519.2 Q1134.61 1515.64 1130.97 1515.64 M1130.97 1511.93 Q1136.78 1511.93 1139.84 1516.54 Q1142.92 1521.12 1142.92 1529.87 Q1142.92 1538.6 1139.84 1543.21 Q1136.78 1547.79 1130.97 1547.79 Q1125.16 1547.79 1122.08 1543.21 Q1119.03 1538.6 1119.03 1529.87 Q1119.03 1521.12 1122.08 1516.54 Q1125.16 1511.93 1130.97 1511.93 Z" fill="#000000" fill-rule="evenodd" fill-opacity="1" /><path clip-path="url(#clip260)" d="M1496.11 1543.18 L1512.43 1543.18 L1512.43 1547.12 L1490.49 1547.12 L1490.49 1543.18 Q1493.15 1540.43 1497.73 1535.8 Q1502.34 1531.15 1503.52 1529.81 Q1505.76 1527.28 1506.64 1525.55 Q1507.55 1523.79 1507.55 1522.1 Q1507.55 1519.34 1505.6 1517.61 Q1503.68 1515.87 1500.58 1515.87 Q1498.38 1515.87 1495.92 1516.63 Q1493.49 1517.4 1490.72 1518.95 L1490.72 1514.23 Q1493.54 1513.09 1495.99 1512.51 Q1498.45 1511.93 1500.49 1511.93 Q1505.86 1511.93 1509.05 1514.62 Q1512.24 1517.31 1512.24 1521.8 Q1512.24 1523.93 1511.43 1525.85 Q1510.65 1527.74 1508.54 1530.34 Q1507.96 1531.01 1504.86 1534.23 Q1501.76 1537.42 1496.11 1543.18 Z" fill="#000000" fill-rule="evenodd" fill-opacity="1" /><path clip-path="url(#clip260)" d="M1874.95 1516.63 L1863.15 1535.08 L1874.95 1535.08 L1874.95 1516.63 M1873.72 1512.56 L1879.6 1512.56 L1879.6 1535.08 L1884.53 1535.08 L1884.53 1538.97 L1879.6 1538.97 L1879.6 1547.12 L1874.95 1547.12 L1874.95 1538.97 L1859.35 1538.97 L1859.35 1534.46 L1873.72 1512.56 Z" fill="#000000" fill-rule="evenodd" fill-opacity="1" /><polyline clip-path="url(#clip262)" style="stroke:#000000; stroke-linecap:butt; stroke-linejoin:round; stroke-width:2; stroke-opacity:0.1; fill:none" points="
  149.191,1309.94 2112.76,1309.94 
  "/>
<polyline clip-path="url(#clip262)" style="stroke:#000000; stroke-linecap:butt; stroke-linejoin:round; stroke-width:2; stroke-opacity:0.1; fill:none" points="
  149.191,1038.39 2112.76,1038.39 
  "/>
<polyline clip-path="url(#clip262)" style="stroke:#000000; stroke-linecap:butt; stroke-linejoin:round; stroke-width:2; stroke-opacity:0.1; fill:none" points="
  149.191,766.846 2112.76,766.846 
  "/>
<polyline clip-path="url(#clip262)" style="stroke:#000000; stroke-linecap:butt; stroke-linejoin:round; stroke-width:2; stroke-opacity:0.1; fill:none" points="
  149.191,495.298 2112.76,495.298 
  "/>
<polyline clip-path="url(#clip262)" style="stroke:#000000; stroke-linecap:butt; stroke-linejoin:round; stroke-width:2; stroke-opacity:0.1; fill:none" points="
  149.191,223.75 2112.76,223.75 
  "/>
<polyline clip-path="url(#clip260)" style="stroke:#000000; stroke-linecap:butt; stroke-linejoin:round; stroke-width:4; stroke-opacity:1; fill:none" points="
  149.191,1486.45 149.191,47.2441 
  "/>
<polyline clip-path="url(#clip260)" style="stroke:#000000; stroke-linecap:butt; stroke-linejoin:round; stroke-width:4; stroke-opacity:1; fill:none" points="
  149.191,1309.94 172.754,1309.94 
  "/>
<polyline clip-path="url(#clip260)" style="stroke:#000000; stroke-linecap:butt; stroke-linejoin:round; stroke-width:4; stroke-opacity:1; fill:none" points="
  149.191,1038.39 172.754,1038.39 
  "/>
<polyline clip-path="url(#clip260)" style="stroke:#000000; stroke-linecap:butt; stroke-linejoin:round; stroke-width:4; stroke-opacity:1; fill:none" points="
  149.191,766.846 172.754,766.846 
  "/>
<polyline clip-path="url(#clip260)" style="stroke:#000000; stroke-linecap:butt; stroke-linejoin:round; stroke-width:4; stroke-opacity:1; fill:none" points="
  149.191,495.298 172.754,495.298 
  "/>
<polyline clip-path="url(#clip260)" style="stroke:#000000; stroke-linecap:butt; stroke-linejoin:round; stroke-width:4; stroke-opacity:1; fill:none" points="
  149.191,223.75 172.754,223.75 
  "/>
<path clip-path="url(#clip260)" d="M50.9921 1310.39 L80.6679 1310.39 L80.6679 1314.33 L50.9921 1314.33 L50.9921 1310.39 Z" fill="#000000" fill-rule="evenodd" fill-opacity="1" /><path clip-path="url(#clip260)" d="M103.608 1296.74 L91.8021 1315.18 L103.608 1315.18 L103.608 1296.74 M102.381 1292.66 L108.26 1292.66 L108.26 1315.18 L113.191 1315.18 L113.191 1319.07 L108.26 1319.07 L108.26 1327.22 L103.608 1327.22 L103.608 1319.07 L88.0058 1319.07 L88.0058 1314.56 L102.381 1292.66 Z" fill="#000000" fill-rule="evenodd" fill-opacity="1" /><path clip-path="url(#clip260)" d="M53.0754 1038.85 L82.7512 1038.85 L82.7512 1042.78 L53.0754 1042.78 L53.0754 1038.85 Z" fill="#000000" fill-rule="evenodd" fill-opacity="1" /><path clip-path="url(#clip260)" d="M96.8715 1051.74 L113.191 1051.74 L113.191 1055.67 L91.2465 1055.67 L91.2465 1051.74 Q93.9086 1048.98 98.4919 1044.35 Q103.098 1039.7 104.279 1038.36 Q106.524 1035.84 107.404 1034.1 Q108.307 1032.34 108.307 1030.65 Q108.307 1027.9 106.362 1026.16 Q104.441 1024.42 101.339 1024.42 Q99.14 1024.42 96.6863 1025.19 Q94.2558 1025.95 91.478 1027.5 L91.478 1022.78 Q94.3021 1021.65 96.7558 1021.07 Q99.2095 1020.49 101.246 1020.49 Q106.617 1020.49 109.811 1023.17 Q113.006 1025.86 113.006 1030.35 Q113.006 1032.48 112.196 1034.4 Q111.408 1036.3 109.302 1038.89 Q108.723 1039.56 105.621 1042.78 Q102.52 1045.97 96.8715 1051.74 Z" fill="#000000" fill-rule="evenodd" fill-opacity="1" /><path clip-path="url(#clip260)" d="M101.246 752.645 Q97.6354 752.645 95.8067 756.209 Q94.0012 759.751 94.0012 766.881 Q94.0012 773.987 95.8067 777.552 Q97.6354 781.094 101.246 781.094 Q104.881 781.094 106.686 777.552 Q108.515 773.987 108.515 766.881 Q108.515 759.751 106.686 756.209 Q104.881 752.645 101.246 752.645 M101.246 748.941 Q107.057 748.941 110.112 753.547 Q113.191 758.131 113.191 766.881 Q113.191 775.608 110.112 780.214 Q107.057 784.797 101.246 784.797 Q95.4363 784.797 92.3576 780.214 Q89.3021 775.608 89.3021 766.881 Q89.3021 758.131 92.3576 753.547 Q95.4363 748.941 101.246 748.941 Z" fill="#000000" fill-rule="evenodd" fill-opacity="1" /><path clip-path="url(#clip260)" d="M96.8715 508.643 L113.191 508.643 L113.191 512.578 L91.2465 512.578 L91.2465 508.643 Q93.9086 505.888 98.4919 501.259 Q103.098 496.606 104.279 495.263 Q106.524 492.74 107.404 491.004 Q108.307 489.245 108.307 487.555 Q108.307 484.8 106.362 483.064 Q104.441 481.328 101.339 481.328 Q99.14 481.328 96.6863 482.092 Q94.2558 482.856 91.478 484.407 L91.478 479.685 Q94.3021 478.551 96.7558 477.972 Q99.2095 477.393 101.246 477.393 Q106.617 477.393 109.811 480.078 Q113.006 482.763 113.006 487.254 Q113.006 489.384 112.196 491.305 Q111.408 493.203 109.302 495.796 Q108.723 496.467 105.621 499.685 Q102.52 502.879 96.8715 508.643 Z" fill="#000000" fill-rule="evenodd" fill-opacity="1" /><path clip-path="url(#clip260)" d="M103.608 210.544 L91.8021 228.993 L103.608 228.993 L103.608 210.544 M102.381 206.47 L108.26 206.47 L108.26 228.993 L113.191 228.993 L113.191 232.882 L108.26 232.882 L108.26 241.03 L103.608 241.03 L103.608 232.882 L88.0058 232.882 L88.0058 228.368 L102.381 206.47 Z" fill="#000000" fill-rule="evenodd" fill-opacity="1" /><polyline clip-path="url(#clip262)" style="stroke:#f3de52; stroke-linecap:butt; stroke-linejoin:round; stroke-width:4; stroke-opacity:1; fill:none" points="
  273.011,1445.72 260.336,1434.59 257.574,1432.14 242.444,1418.56 241.812,1417.99 227.648,1404.98 223.288,1400.94 213.132,1391.41 204.763,1383.47 
  "/>
<polyline clip-path="url(#clip262)" style="stroke:#fbac10; stroke-linecap:butt; stroke-linejoin:round; stroke-width:4; stroke-opacity:1; fill:none" points="
  204.763,1295.58 205.518,1296.36 218.815,1309.94 223.288,1314.46 232.377,1323.52 241.812,1332.82 246.202,1337.1 260.299,1350.67 260.336,1350.71 274.75,1364.25 
  278.86,1368.07 289.491,1377.83 297.384,1385 304.533,1391.41 315.909,1401.5 319.89,1404.98 334.433,1417.59 335.572,1418.56 351.619,1432.14 352.957,1433.26 
  368.033,1445.72 
  "/>
<polyline clip-path="url(#clip262)" style="stroke:#f57c15; stroke-linecap:butt; stroke-linejoin:round; stroke-width:4; stroke-opacity:1; fill:none" points="
  473.014,1445.72 464.102,1438.94 455.3,1432.14 445.578,1424.55 438.014,1418.56 427.054,1409.79 421.136,1404.98 408.53,1394.64 404.65,1391.41 390.005,1379.08 
  388.539,1377.83 372.812,1364.25 371.481,1363.09 357.464,1350.67 352.957,1346.64 342.451,1337.1 334.433,1329.73 327.761,1323.52 315.909,1312.36 313.379,1309.94 
  299.33,1296.36 297.384,1294.46 285.615,1282.79 278.86,1276.01 272.177,1269.21 260.336,1257.02 259.006,1255.63 246.167,1242.05 241.812,1237.39 233.6,1228.48 
  223.288,1217.14 221.271,1214.9 209.249,1201.32 204.763,1196.19 
  "/>
<polyline clip-path="url(#clip262)" style="stroke:#df5436; stroke-linecap:butt; stroke-linejoin:round; stroke-width:4; stroke-opacity:1; fill:none" points="
  204.763,1079.21 214.999,1092.7 223.288,1103.46 225.493,1106.28 236.288,1119.86 241.812,1126.69 247.331,1133.44 258.623,1147.01 260.336,1149.04 270.239,1160.59 
  278.86,1170.5 282.089,1174.17 294.243,1187.75 297.384,1191.2 306.709,1201.32 315.909,1211.17 319.439,1214.9 332.481,1228.48 334.433,1230.48 345.874,1242.05 
  352.957,1249.13 359.564,1255.63 371.481,1267.22 373.562,1269.21 387.926,1282.79 390.005,1284.73 402.664,1296.36 408.53,1301.69 417.75,1309.94 427.054,1318.17 
  433.2,1323.52 445.578,1334.17 449.031,1337.1 464.102,1349.72 465.261,1350.67 481.923,1364.25 482.626,1364.82 499.04,1377.83 501.151,1379.48 516.607,1391.41 
  519.675,1393.75 534.647,1404.98 538.199,1407.62 553.183,1418.56 556.723,1421.12 572.24,1432.14 575.247,1434.25 591.845,1445.72 
  "/>
<polyline clip-path="url(#clip262)" style="stroke:#be3852; stroke-linecap:butt; stroke-linejoin:round; stroke-width:4; stroke-opacity:1; fill:none" points="
  732.282,1445.72 723.441,1440.51 709.534,1432.14 704.917,1429.33 687.582,1418.56 686.393,1417.81 667.868,1405.93 666.418,1404.98 649.344,1393.68 645.97,1391.41 
  630.82,1381.06 626.168,1377.83 612.296,1368.06 606.977,1364.25 593.772,1354.67 588.363,1350.67 575.247,1340.87 570.296,1337.1 556.723,1326.64 552.748,1323.52 
  538.199,1311.97 535.692,1309.94 519.675,1296.84 519.104,1296.36 503.002,1282.79 501.151,1281.21 487.343,1269.21 482.626,1265.06 472.095,1255.63 464.102,1248.38 
  457.236,1242.05 445.578,1231.16 442.749,1228.48 428.65,1214.9 427.054,1213.34 414.955,1201.32 408.53,1194.85 401.587,1187.75 390.005,1175.72 388.53,1174.17 
  375.86,1160.59 371.481,1155.82 363.507,1147.01 352.957,1135.18 351.429,1133.44 339.718,1119.86 334.433,1113.63 328.289,1106.28 317.126,1092.7 315.909,1091.19 
  306.318,1079.13 297.384,1067.69 295.732,1065.55 285.484,1051.97 278.86,1043.03 275.471,1038.39 265.755,1024.82 260.336,1017.09 256.29,1011.24 247.102,997.662 
  241.812,989.675 238.161,984.084 229.496,970.507 223.288,960.558 221.055,956.93 212.91,943.352 204.949,929.775 204.763,929.45 
  "/>
<polyline clip-path="url(#clip262)" style="stroke:#962666; stroke-linecap:butt; stroke-linejoin:round; stroke-width:4; stroke-opacity:1; fill:none" points="
  204.763,663.875 206.498,671.804 209.733,685.382 213.224,698.959 216.966,712.536 220.954,726.114 223.288,733.582 225.225,739.691 229.788,753.269 234.589,766.846 
  239.626,780.423 241.812,786.041 244.957,794.001 250.565,807.578 256.401,821.156 260.336,829.958 262.503,834.733 268.912,848.31 275.539,861.888 278.86,868.458 
  282.457,875.465 289.659,889.043 297.072,902.62 297.384,903.174 304.847,916.197 312.836,929.775 315.909,934.849 321.138,943.352 329.707,956.93 334.433,964.228 
  338.563,970.507 347.718,984.084 352.957,991.674 357.157,997.662 366.903,1011.24 371.481,1017.48 376.956,1024.82 387.299,1038.39 390.005,1041.87 397.999,1051.97 
  408.53,1065.03 408.951,1065.55 420.323,1079.13 427.054,1087.02 431.982,1092.7 443.97,1106.28 445.578,1108.07 456.373,1119.86 464.102,1128.16 469.096,1133.44 
  482.168,1147.01 482.626,1147.48 495.706,1160.59 501.151,1165.96 509.614,1174.17 519.675,1183.77 523.912,1187.75 538.199,1200.94 538.622,1201.32 553.84,1214.9 
  556.723,1217.43 569.519,1228.48 575.247,1233.35 585.674,1242.05 593.772,1248.72 602.334,1255.63 612.296,1263.56 619.528,1269.21 630.82,1277.91 637.287,1282.79 
  649.344,1291.77 655.647,1296.36 667.868,1305.16 674.645,1309.94 686.393,1318.12 694.323,1323.52 704.917,1330.64 714.724,1337.1 723.441,1342.76 735.896,1350.67 
  741.965,1354.48 757.894,1364.25 760.489,1365.82 779.014,1376.78 780.831,1377.83 797.538,1387.35 804.836,1391.41 816.062,1397.57 829.899,1404.98 834.586,1407.46 
  853.11,1417.01 856.214,1418.56 871.635,1426.19 883.99,1432.14 890.159,1435.07 908.683,1443.63 913.351,1445.72 
  "/>
<polyline clip-path="url(#clip262)" style="stroke:#6d186e; stroke-linecap:butt; stroke-linejoin:round; stroke-width:4; stroke-opacity:1; fill:none" points="
  1256.87,1445.72 1242.12,1443.66 1223.59,1440.74 1205.07,1437.49 1186.55,1433.91 1178.12,1432.14 1168.02,1429.98 1149.5,1425.69 1130.97,1421.1 1121.42,1418.56 
  1112.45,1416.15 1093.92,1410.85 1075.4,1405.26 1074.54,1404.98 1056.88,1399.26 1038.35,1392.98 1033.94,1391.41 1019.83,1386.31 1001.3,1379.33 997.483,1377.83 
  982.78,1371.96 964.256,1364.29 964.155,1364.25 945.731,1356.2 933.52,1350.67 927.207,1347.78 908.683,1338.99 904.837,1337.1 890.159,1329.79 877.953,1323.52 
  871.635,1320.23 853.11,1310.29 852.484,1309.94 834.586,1299.89 828.472,1296.36 816.062,1289.1 805.572,1282.79 797.538,1277.88 783.7,1269.21 779.014,1266.23 
  762.775,1255.63 760.489,1254.12 742.73,1242.05 741.965,1241.53 723.499,1228.48 723.441,1228.44 705.027,1214.9 704.917,1214.82 687.26,1201.32 686.393,1200.65 
  670.152,1187.75 667.868,1185.9 653.659,1174.17 649.344,1170.55 637.741,1160.59 630.82,1154.55 622.363,1147.01 612.296,1137.88 607.49,1133.44 593.772,1120.51 
  593.093,1119.86 579.251,1106.28 575.247,1102.28 565.856,1092.7 556.723,1083.22 552.863,1079.13 540.305,1065.55 538.199,1063.22 528.213,1051.97 519.675,1042.16 
  516.462,1038.39 505.134,1024.82 501.151,1019.93 494.196,1011.24 483.57,997.662 482.626,996.424 473.397,984.084 464.102,971.371 463.482,970.507 454.015,956.93 
  445.578,944.529 444.792,943.352 436,929.775 427.438,916.197 427.054,915.566 419.306,902.62 411.419,889.043 408.53,883.891 403.888,875.465 396.668,861.888 
  390.005,848.908 389.704,848.31 383.145,834.733 376.839,821.156 371.481,809.119 370.807,807.578 365.16,794.001 359.776,780.423 354.661,766.846 352.957,762.047 
  349.894,753.269 345.441,739.691 341.267,726.114 337.377,712.536 334.433,701.417 333.793,698.959 330.569,685.382 327.639,671.804 325.01,658.227 322.689,644.649 
  320.68,631.072 318.99,617.495 317.625,603.917 316.592,590.34 315.909,576.973 315.898,576.762 315.558,563.185 315.561,549.608 315.909,536.25 315.915,536.03 
  316.644,522.453 317.748,508.875 319.235,495.298 321.112,481.721 323.388,468.143 326.071,454.566 329.17,440.989 332.694,427.411 334.433,421.424 336.715,413.834 
  341.243,400.256 346.239,386.679 351.714,373.102 352.957,370.255 357.821,359.524 364.484,345.947 371.481,332.741 371.686,332.369 379.671,318.792 388.236,305.215 
  390.005,302.575 397.643,291.637 407.744,278.06 408.53,277.059 418.846,264.482 427.054,255.037 430.811,250.905 443.83,237.328 445.578,235.593 458.095,223.75 
  464.102,218.342 473.645,210.173 482.626,202.84 490.691,196.595 501.151,188.854 509.489,183.018 519.675,176.191 530.36,169.441 538.199,164.689 553.707,155.863 
  556.723,154.213 575.247,144.715 580.323,142.286 593.772,136.09 611.061,128.708 612.296,128.2 630.82,121.124 647.943,115.131 649.344,114.657 667.868,108.909 
  686.393,103.709 694.913,101.554 704.917,99.1054 723.441,95.0605 741.965,91.5095 760.489,88.4401 763.772,87.9763 
  "/>
<polyline clip-path="url(#clip262)" style="stroke:#6d186e; stroke-linecap:butt; stroke-linejoin:round; stroke-width:4; stroke-opacity:1; fill:none" points="
  1005.08,87.9763 1019.83,90.0296 1038.35,92.9507 1056.88,96.2023 1075.4,99.7771 1083.82,101.554 1093.92,103.713 1112.45,108 1130.97,112.596 1140.53,115.131 
  1149.5,117.542 1168.02,122.841 1186.55,128.432 1187.41,128.708 1205.07,134.428 1223.59,140.713 1228.01,142.286 1242.12,147.382 1260.64,154.36 1264.46,155.863 
  1279.17,161.729 1297.69,169.397 1297.79,169.441 1316.22,177.495 1328.43,183.018 1334.74,185.913 1353.26,194.707 1357.11,196.595 1371.79,203.906 1383.99,210.173 
  1390.31,213.463 1408.84,223.403 1409.46,223.75 1427.36,233.798 1433.48,237.328 1445.88,244.595 1456.37,250.905 1464.41,255.81 1478.25,264.482 1482.93,267.463 
  1499.17,278.06 1501.46,279.574 1519.22,291.637 1519.98,292.165 1538.45,305.215 1538.51,305.257 1556.92,318.792 1557.03,318.874 1574.69,332.369 1575.55,333.043 
  1591.79,345.947 1594.08,347.791 1608.29,359.524 1612.6,363.147 1624.21,373.102 1631.13,379.141 1639.58,386.679 1649.65,395.807 1654.46,400.256 1668.18,413.181 
  1668.85,413.834 1682.7,427.411 1686.7,431.412 1696.09,440.989 1705.22,450.476 1709.08,454.566 1721.64,468.143 1723.75,470.47 1733.73,481.721 1742.27,491.534 
  1745.48,495.298 1756.81,508.875 1760.8,513.761 1767.75,522.453 1778.38,536.03 1779.32,537.268 1788.55,549.608 1797.84,562.321 1798.46,563.185 1807.93,576.762 
  1816.37,589.163 1817.16,590.34 1825.95,603.917 1834.51,617.495 1834.89,618.126 1842.64,631.072 1850.53,644.649 1853.42,649.801 1858.06,658.227 1865.28,671.804 
  1871.94,684.784 1872.24,685.382 1878.8,698.959 1885.11,712.536 1890.47,724.573 1891.14,726.114 1896.79,739.691 1902.17,753.269 1907.29,766.846 1908.99,771.645 
  1912.05,780.423 1916.51,794.001 1920.68,807.578 1924.57,821.156 1927.51,832.275 1928.15,834.733 1931.38,848.31 1934.31,861.888 1936.94,875.465 1939.26,889.043 
  1941.27,902.62 1942.96,916.197 1944.32,929.775 1945.35,943.352 1946.04,956.719 1946.05,956.93 1946.39,970.507 1946.39,984.084 1946.04,997.442 1946.03,997.662 
  1945.3,1011.24 1944.2,1024.82 1942.71,1038.39 1940.83,1051.97 1938.56,1065.55 1935.88,1079.13 1932.78,1092.7 1929.25,1106.28 1927.51,1112.27 1925.23,1119.86 
  1920.7,1133.44 1915.71,1147.01 1910.23,1160.59 1908.99,1163.44 1904.13,1174.17 1897.46,1187.75 1890.47,1200.95 1890.26,1201.32 1882.28,1214.9 1873.71,1228.48 
  1871.94,1231.12 1864.3,1242.05 1854.2,1255.63 1853.42,1256.63 1843.1,1269.21 1834.89,1278.65 1831.14,1282.79 1818.12,1296.36 1816.37,1298.1 1803.85,1309.94 
  1797.84,1315.35 1788.3,1323.52 1779.32,1330.85 1771.26,1337.1 1760.8,1344.84 1752.46,1350.67 1742.27,1357.5 1731.59,1364.25 1723.75,1369 1708.24,1377.83 
  1705.22,1379.48 1686.7,1388.98 1681.62,1391.41 1668.18,1397.6 1650.89,1404.98 1649.65,1405.49 1631.13,1412.57 1614,1418.56 1612.6,1419.03 1594.08,1424.78 
  1575.55,1429.98 1567.03,1432.14 1557.03,1434.59 1538.51,1438.63 1519.98,1442.18 1501.46,1445.25 1498.17,1445.72 
  "/>
<polyline clip-path="url(#clip262)" style="stroke:#962666; stroke-linecap:butt; stroke-linejoin:round; stroke-width:4; stroke-opacity:1; fill:none" points="
  1841.65,1445.72 1853.42,1437.69 1861.16,1432.14 1871.94,1424.11 1879.05,1418.56 1890.47,1409.29 1895.53,1404.98 1908.99,1393.06 1910.78,1391.41 1924.87,1377.83 
  1927.51,1375.16 1937.92,1364.25 1946.04,1355.32 1950.1,1350.67 1961.43,1337.1 1964.56,1333.16 1971.94,1323.52 1981.8,1309.94 1983.09,1308.08 1990.89,1296.36 
  1999.42,1282.79 2001.61,1279.11 2007.3,1269.21 2014.63,1255.63 2020.13,1244.77 2021.46,1242.05 2027.71,1228.48 2033.52,1214.9 2038.66,1201.93 2038.89,1201.32 
  2043.73,1187.75 2048.17,1174.17 2052.22,1160.59 2055.89,1147.01 2057.18,1141.69 
  "/>
<polyline clip-path="url(#clip262)" style="stroke:#962666; stroke-linecap:butt; stroke-linejoin:round; stroke-width:4; stroke-opacity:1; fill:none" points="
  2057.18,869.817 2055.45,861.888 2052.21,848.31 2048.72,834.733 2044.98,821.156 2040.99,807.578 2038.66,800.11 2036.72,794.001 2032.16,780.423 2027.36,766.846 
  2022.32,753.269 2020.13,747.651 2016.99,739.691 2011.38,726.114 2005.55,712.536 2001.61,703.734 1999.44,698.959 1993.03,685.382 1986.41,671.804 1983.09,665.234 
  1979.49,658.227 1972.29,644.649 1964.87,631.072 1964.56,630.518 1957.1,617.495 1949.11,603.917 1946.04,598.843 1940.81,590.34 1932.24,576.762 1927.51,569.464 
  1923.38,563.185 1914.23,549.608 1908.99,542.018 1904.79,536.03 1895.04,522.453 1890.47,516.216 1884.99,508.875 1874.65,495.298 1871.94,491.822 1863.95,481.721 
  1853.42,468.658 1853,468.143 1841.62,454.566 1834.89,446.673 1829.96,440.989 1817.98,427.411 1816.37,425.625 1805.57,413.834 1797.84,405.531 1792.85,400.256 
  1779.78,386.679 1779.32,386.212 1766.24,373.102 1760.8,367.73 1752.33,359.524 1742.27,349.92 1738.03,345.947 1723.75,332.753 1723.32,332.369 1708.11,318.792 
  1705.22,316.257 1692.43,305.215 1686.7,300.342 1676.27,291.637 1668.18,284.973 1659.61,278.06 1649.65,270.129 1642.42,264.482 1631.13,255.787 1624.66,250.905 
  1612.6,241.927 1606.3,237.328 1594.08,228.529 1587.3,223.75 1575.55,215.576 1567.62,210.173 1557.03,203.049 1547.22,196.595 1538.51,190.933 1526.05,183.018 
  1519.98,179.211 1504.05,169.441 1501.46,167.869 1482.93,156.912 1481.12,155.863 1464.41,146.344 1457.11,142.286 1445.88,136.12 1432.05,128.708 1427.36,126.228 
  1408.84,116.685 1405.73,115.131 1390.31,107.502 1377.96,101.554 1371.79,98.6192 1353.26,90.0653 1348.6,87.9763 
  "/>
<polyline clip-path="url(#clip262)" style="stroke:#be3852; stroke-linecap:butt; stroke-linejoin:round; stroke-width:4; stroke-opacity:1; fill:none" points="
  1529.67,87.9763 1538.51,93.1859 1552.41,101.554 1557.03,104.364 1574.36,115.131 1575.55,115.879 1594.08,127.76 1595.53,128.708 1612.6,140.01 1615.98,142.286 
  1631.13,152.628 1635.78,155.863 1649.65,165.627 1654.97,169.441 1668.18,179.022 1673.58,183.018 1686.7,192.826 1691.65,196.595 1705.22,207.055 1709.2,210.173 
  1723.75,221.725 1726.25,223.75 1742.27,236.852 1742.84,237.328 1758.95,250.905 1760.8,252.486 1774.6,264.482 1779.32,268.635 1789.85,278.06 1797.84,285.309 
  1804.71,291.637 1816.37,302.529 1819.2,305.215 1833.3,318.792 1834.89,320.353 1846.99,332.369 1853.42,338.843 1860.36,345.947 1871.94,357.969 1873.42,359.524 
  1886.09,373.102 1890.47,377.868 1898.44,386.679 1908.99,398.516 1910.52,400.256 1922.23,413.834 1927.51,420.063 1933.66,427.411 1944.82,440.989 1946.04,442.498 
  1955.63,454.566 1964.56,465.998 1966.22,468.143 1976.46,481.721 1983.09,490.659 1986.48,495.298 1996.19,508.875 2001.61,516.602 2005.66,522.453 2014.84,536.03 
  2020.13,544.017 2023.79,549.608 2032.45,563.185 2038.66,573.134 2040.89,576.762 2049.04,590.34 2057,603.917 2057.18,604.242 
  "/>
<polyline clip-path="url(#clip262)" style="stroke:#df5436; stroke-linecap:butt; stroke-linejoin:round; stroke-width:4; stroke-opacity:1; fill:none" points="
  2057.18,454.477 2046.95,440.989 2038.66,430.234 2036.45,427.411 2025.66,413.834 2020.13,406.997 2014.62,400.256 2003.32,386.679 2001.61,384.654 1991.71,373.102 
  1983.09,363.187 1979.86,359.524 1967.7,345.947 1964.56,342.49 1955.24,332.369 1946.04,322.519 1942.51,318.792 1929.47,305.215 1927.51,303.212 1916.07,291.637 
  1908.99,284.564 1902.38,278.06 1890.47,266.476 1888.38,264.482 1874.02,250.905 1871.94,248.965 1859.28,237.328 1853.42,232 1844.2,223.75 1834.89,215.525 
  1828.75,210.173 1816.37,199.521 1812.92,196.595 1797.84,183.973 1796.69,183.018 1780.02,169.441 1779.32,168.874 1762.91,155.863 1760.8,154.209 1745.34,142.286 
  1742.27,139.946 1727.3,128.708 1723.75,126.072 1708.76,115.131 1705.22,112.574 1689.71,101.554 1686.7,99.4406 1670.1,87.9763 
  "/>
<polyline clip-path="url(#clip262)" style="stroke:#f57c15; stroke-linecap:butt; stroke-linejoin:round; stroke-width:4; stroke-opacity:1; fill:none" points="
  1788.93,87.9763 1797.84,94.7563 1806.65,101.554 1816.37,109.14 1823.93,115.131 1834.89,123.903 1840.81,128.708 1853.42,139.055 1857.3,142.286 1871.94,154.611 
  1873.41,155.863 1889.13,169.441 1890.47,170.603 1904.48,183.018 1908.99,187.055 1919.5,196.595 1927.51,203.961 1934.19,210.173 1946.04,221.336 1948.57,223.75 
  1962.62,237.328 1964.56,239.231 1976.33,250.905 1983.09,257.685 1989.77,264.482 2001.61,276.673 2002.94,278.06 2015.78,291.637 2020.13,296.303 2028.35,305.215 
  2038.66,316.548 2040.68,318.792 2052.7,332.369 2057.18,337.506 
  "/>
<polyline clip-path="url(#clip262)" style="stroke:#fbac10; stroke-linecap:butt; stroke-linejoin:round; stroke-width:4; stroke-opacity:1; fill:none" points="
  2057.18,238.108 2056.43,237.328 2043.13,223.75 2038.66,219.236 2029.57,210.173 2020.13,200.87 2015.75,196.595 2001.65,183.018 2001.61,182.983 1987.2,169.441 
  1983.09,165.62 1972.46,155.863 1964.56,148.695 1957.41,142.286 1946.04,132.195 1942.06,128.708 1927.51,116.106 1926.37,115.131 1910.33,101.554 1908.99,100.433 
  1893.91,87.9763 
  "/>
<polyline clip-path="url(#clip262)" style="stroke:#f3de52; stroke-linecap:butt; stroke-linejoin:round; stroke-width:4; stroke-opacity:1; fill:none" points="
  1988.94,87.9763 2001.61,99.0999 2004.37,101.554 2019.5,115.131 2020.13,115.704 2034.3,128.708 2038.66,132.753 2048.82,142.286 2057.18,150.221 
  "/>
<polyline clip-path="url(#clip262)" style="stroke:#962666; stroke-linecap:butt; stroke-linejoin:round; stroke-width:4; stroke-opacity:1; fill:none" points="
  420.297,87.9763 408.53,96.0057 400.788,101.554 390.005,109.585 382.899,115.131 371.481,124.406 366.416,128.708 352.957,140.628 351.164,142.286 337.078,155.863 
  334.433,158.527 324.028,169.441 315.909,178.369 311.842,183.018 300.515,196.595 297.384,200.534 290.004,210.173 280.145,223.75 278.86,225.612 271.057,237.328 
  262.522,250.905 260.336,254.583 254.649,264.482 247.314,278.06 241.812,288.924 240.482,291.637 234.237,305.215 228.429,318.792 223.288,331.763 223.055,332.369 
  218.214,345.947 213.772,359.524 209.723,373.102 206.058,386.679 204.763,392.004 
  "/>
<polyline clip-path="url(#clip262)" style="stroke:#be3852; stroke-linecap:butt; stroke-linejoin:round; stroke-width:4; stroke-opacity:1; fill:none" points="
  204.763,126.459 214.283,115.131 223.288,104.879 226.312,101.554 239.178,87.9763 
  "/>
<polyline clip-path="url(#clip262)" style="stroke:#be3852; stroke-linecap:butt; stroke-linejoin:round; stroke-width:4; stroke-opacity:1; fill:none" points="
  2057.18,1407.23 2047.66,1418.56 2038.66,1428.81 2035.63,1432.14 2022.77,1445.72 
  "/>
<polyline clip-path="url(#clip262)" style="stroke:#430a68; stroke-linecap:butt; stroke-linejoin:round; stroke-width:4; stroke-opacity:1; fill:none" points="
  1689.84,1201.32 1686.7,1204.37 1675.19,1214.9 1668.18,1220.95 1658.87,1228.48 1649.65,1235.52 1640.52,1242.05 1631.13,1248.42 1619.69,1255.63 1612.6,1259.88 
  1595.78,1269.21 1594.08,1270.11 1575.55,1279.15 1567.41,1282.79 1557.03,1287.21 1538.51,1294.39 1532.87,1296.36 1519.98,1300.69 1501.46,1306.24 1487.45,1309.94 
  1482.93,1311.09 1464.41,1315.2 1445.88,1318.71 1427.36,1321.64 1412.59,1323.52 1408.84,1323.98 1390.31,1325.74 1371.79,1326.97 1353.26,1327.7 1334.74,1327.94 
  1316.22,1327.71 1297.69,1327.01 1279.17,1325.86 1260.64,1324.27 1253.83,1323.52 1242.12,1322.21 1223.59,1319.72 1205.07,1316.81 1186.55,1313.49 1168.8,1309.94 
  1168.02,1309.78 1149.5,1305.59 1130.97,1301.02 1113.54,1296.36 1112.45,1296.07 1093.92,1290.63 1075.4,1284.84 1069.26,1282.79 1056.88,1278.59 1038.35,1271.94 
  1031.13,1269.21 1019.83,1264.85 1001.3,1257.36 997.233,1255.63 982.78,1249.39 966.506,1242.05 964.256,1241.02 945.731,1232.15 938.363,1228.48 927.207,1222.82 
  912.146,1214.9 908.683,1213.05 890.159,1202.76 887.663,1201.32 871.635,1191.93 864.713,1187.75 853.11,1180.6 843.005,1174.17 834.586,1168.71 822.427,1160.59 
  816.062,1156.26 802.878,1147.01 797.538,1143.2 784.27,1133.44 779.014,1129.49 766.525,1119.86 760.489,1115.11 749.573,1106.28 741.965,1100 733.351,1092.7 
  723.441,1084.13 717.803,1079.13 704.917,1067.44 702.879,1065.55 688.606,1051.97 686.393,1049.82 674.953,1038.39 667.868,1031.16 661.808,1024.82 649.344,1011.47 
  649.135,1011.24 637.098,997.662 630.82,990.403 625.482,984.084 614.313,970.507 612.296,967.979 603.679,956.93 593.772,943.877 593.382,943.352 583.648,929.775 
  575.247,917.708 574.219,916.197 565.313,902.62 556.723,889.094 556.691,889.043 548.604,875.465 540.808,861.888 538.199,857.138 533.454,848.31 526.475,834.733 
  519.802,821.156 519.675,820.881 513.626,807.578 507.768,794.001 502.233,780.423 501.151,777.582 497.148,766.846 492.424,753.269 488.039,739.691 484.001,726.114 
  482.626,721.024 480.384,712.536 477.161,698.959 474.301,685.382 471.812,671.804 469.703,658.227 467.984,644.649 466.663,631.072 465.751,617.495 465.258,603.917 
  465.193,590.34 465.569,576.762 466.396,563.185 467.685,549.608 469.449,536.03 471.699,522.453 474.449,508.875 477.712,495.298 481.502,481.721 482.626,478.171 
  485.944,468.143 491.002,454.566 496.655,440.989 501.151,431.219 502.986,427.411 510.139,413.834 517.969,400.256 519.675,397.518 526.77,386.679 536.394,373.102 
  538.199,370.725 547.164,359.524 556.723,348.405 558.957,345.947 572.108,332.369 575.247,329.322 586.757,318.792 593.772,312.747 603.08,305.215 612.296,298.167 
  621.429,291.637 630.82,285.272 642.258,278.06 649.344,273.812 666.168,264.482 667.868,263.584 686.393,254.543 694.541,250.905 704.917,246.479 723.441,239.301 
  729.074,237.328 741.965,233.002 760.489,227.453 774.5,223.75 779.014,222.605 797.538,218.491 816.062,214.981 834.586,212.056 849.359,210.173 853.11,209.713 
  871.635,207.957 890.159,206.72 908.683,205.989 927.207,205.748 945.731,205.984 964.256,206.684 982.78,207.836 1001.3,209.427 1008.12,210.173 1019.83,211.478 
  1038.35,213.974 1056.88,216.885 1075.4,220.199 1093.15,223.75 1093.92,223.909 1112.45,228.102 1130.97,232.674 1148.41,237.328 1149.5,237.624 1168.02,243.061 
  1186.55,248.856 1192.69,250.905 1205.07,255.103 1223.59,261.748 1230.81,264.482 1242.12,268.838 1260.64,276.33 1264.71,278.06 1279.17,284.304 1295.44,291.637 
  1297.69,292.668 1316.22,301.543 1323.58,305.215 1334.74,310.87 1349.8,318.792 1353.26,320.645 1371.79,330.933 1374.28,332.369 1390.31,341.757 1397.23,345.947 
  1408.84,353.096 1418.94,359.524 1427.36,364.978 1439.52,373.102 1445.88,377.433 1459.07,386.679 1464.41,390.495 1477.68,400.256 1482.93,404.199 1495.42,413.834 
  1501.46,418.583 1512.37,427.411 1519.98,433.688 1528.6,440.989 1538.51,449.561 1544.14,454.566 1557.03,466.248 1559.07,468.143 1573.34,481.721 1575.55,483.877 
  1586.99,495.298 1594.08,502.534 1600.14,508.875 1612.6,522.224 1612.81,522.453 1624.85,536.03 1631.13,543.289 1636.46,549.608 1647.63,563.185 1649.65,565.713 
  1658.27,576.762 1668.18,589.815 1668.56,590.34 1678.3,603.917 1686.7,615.984 1687.73,617.495 1696.63,631.072 1705.22,644.598 1705.26,644.649 1713.34,658.227 
  1721.14,671.804 1723.75,676.554 1728.49,685.382 1735.47,698.959 1742.14,712.536 1742.27,712.811 1748.32,726.114 1754.18,739.691 1759.71,753.269 1760.8,756.11 
  1764.8,766.846 1769.52,780.423 1773.91,794.001 1777.95,807.578 1779.32,812.668 1781.56,821.156 1784.79,834.733 1787.65,848.31 1790.13,861.888 1792.24,875.465 
  1793.96,889.043 1795.28,902.62 1796.2,916.197 1796.69,929.775 1796.75,943.352 1796.38,956.93 1795.55,970.507 1794.26,984.084 1792.5,997.662 1790.25,1011.24 
  1787.5,1024.82 1784.23,1038.39 1780.45,1051.97 1779.32,1055.52 1776,1065.55 1770.94,1079.13 1765.29,1092.7 1760.8,1102.47 1758.96,1106.28 1751.81,1119.86 
  1743.98,1133.44 1742.27,1136.17 1735.18,1147.01 1725.55,1160.59 1723.75,1162.97 1714.78,1174.17 1705.22,1185.29 1702.99,1187.75 1689.84,1201.32 
  "/>
<polyline clip-path="url(#clip262)" style="stroke:#170b3b; stroke-linecap:butt; stroke-linejoin:round; stroke-width:4; stroke-opacity:1; fill:none" points="
  1520.86,1079.13 1519.98,1079.94 1504.95,1092.7 1501.46,1095.44 1486.25,1106.28 1482.93,1108.47 1464.41,1119.53 1463.79,1119.86 1445.88,1128.81 1435.36,1133.44 
  1427.36,1136.74 1408.84,1143.4 1397.08,1147.01 1390.31,1148.97 1371.79,1153.48 1353.26,1157.12 1334.74,1159.92 1328.65,1160.59 1316.22,1161.88 1297.69,1163.08 
  1279.17,1163.57 1260.64,1163.39 1242.12,1162.55 1223.59,1161.09 1219.15,1160.59 1205.07,1158.97 1186.55,1156.23 1168.02,1152.91 1149.5,1149.04 1141.01,1147.01 
  1130.97,1144.55 1112.45,1139.46 1093.92,1133.86 1092.66,1133.44 1075.4,1127.55 1056.88,1120.75 1054.62,1119.86 1038.35,1113.26 1022.21,1106.28 1019.83,1105.23 
  1001.3,1096.48 993.732,1092.7 982.78,1087.1 967.967,1079.13 964.256,1077.08 945.731,1066.33 944.453,1065.55 927.207,1054.77 922.912,1051.97 908.683,1042.44 
  902.892,1038.39 890.159,1029.26 884.211,1024.82 871.635,1015.16 866.718,1011.24 853.11,1000.07 850.282,997.662 834.8,984.084 834.586,983.89 820.345,970.507 
  816.062,966.354 806.677,956.93 797.538,947.451 793.717,943.352 781.506,929.775 779.014,926.894 770.063,916.197 760.489,904.333 759.151,902.62 749.014,889.043 
  741.965,879.2 739.373,875.465 730.414,861.888 723.441,850.803 721.921,848.31 714.118,834.733 706.734,821.156 704.917,817.576 699.994,807.578 693.763,794.001 
  687.982,780.423 686.393,776.332 682.818,766.846 678.185,753.269 674.033,739.691 670.38,726.114 667.868,715.227 667.266,712.536 664.768,698.959 662.801,685.382 
  661.381,671.804 660.529,658.227 660.264,644.649 660.606,631.072 661.577,617.495 663.199,603.917 665.497,590.34 667.868,579.567 668.523,576.762 672.428,563.185 
  677.127,549.608 682.653,536.03 686.393,528.035 689.18,522.453 696.859,508.875 704.917,496.249 705.569,495.298 715.858,481.721 723.441,472.688 727.566,468.143 
  741.083,454.566 741.965,453.75 756.999,440.989 760.489,438.255 775.701,427.411 779.014,425.219 797.538,414.165 798.156,413.834 816.062,404.887 826.589,400.256 
  834.586,396.956 853.11,390.293 864.87,386.679 871.635,384.719 890.159,380.211 908.683,376.573 927.207,373.767 933.293,373.102 945.731,371.811 964.256,370.615 
  982.78,370.122 1001.3,370.306 1019.83,371.141 1038.35,372.602 1042.79,373.102 1056.88,374.723 1075.4,377.462 1093.92,380.777 1112.45,384.648 1120.94,386.679 
  1130.97,389.138 1149.5,394.233 1168.02,399.837 1169.28,400.256 1186.55,406.137 1205.07,412.937 1207.33,413.834 1223.59,420.437 1239.74,427.411 1242.12,428.465 
  1260.64,437.209 1268.21,440.989 1279.17,446.59 1293.98,454.566 1297.69,456.615 1316.22,467.365 1317.49,468.143 1334.74,478.917 1339.03,481.721 1353.26,491.252 
  1359.06,495.298 1371.79,504.433 1377.74,508.875 1390.31,518.53 1395.23,522.453 1408.84,533.621 1411.66,536.03 1427.15,549.608 1427.36,549.802 1441.6,563.185 
  1445.88,567.338 1455.27,576.762 1464.41,586.241 1468.23,590.34 1480.44,603.917 1482.93,606.798 1491.88,617.495 1501.46,629.359 1502.8,631.072 1512.93,644.649 
  1519.98,654.492 1522.57,658.227 1531.53,671.804 1538.51,682.889 1540.03,685.382 1547.83,698.959 1555.21,712.536 1557.03,716.116 1561.95,726.114 1568.18,739.691 
  1573.96,753.269 1575.55,757.36 1579.13,766.846 1583.76,780.423 1587.91,794.001 1591.57,807.578 1594.08,818.465 1594.68,821.156 1597.18,834.733 1599.15,848.31 
  1600.57,861.888 1601.42,875.465 1601.68,889.043 1601.34,902.62 1600.37,916.197 1598.75,929.775 1596.45,943.352 1594.08,954.125 1593.42,956.93 1589.52,970.507 
  1584.82,984.084 1579.29,997.662 1575.55,1005.66 1572.77,1011.24 1565.09,1024.82 1557.03,1037.44 1556.38,1038.39 1546.09,1051.97 1538.51,1061 1534.38,1065.55 
  1520.86,1079.13 
  "/>
<polyline clip-path="url(#clip262)" style="stroke:#e26f46; stroke-linecap:butt; stroke-linejoin:round; stroke-width:4; stroke-opacity:1; fill:none" points="
  1130.97,766.846 1231.06,881.096 
  "/>
<polyline clip-path="url(#clip262)" style="stroke:#e26f46; stroke-linecap:butt; stroke-linejoin:round; stroke-width:4; stroke-opacity:1; fill:none" points="
  1220.88,842.156 1231.06,881.096 1193.8,865.878 
  "/>
<polyline clip-path="url(#clip262)" style="stroke:#e26f46; stroke-linecap:butt; stroke-linejoin:round; stroke-width:4; stroke-opacity:1; fill:none" points="
  1231.06,881.096 1130.97,766.846 
  "/>
<polyline clip-path="url(#clip262)" style="stroke:#e26f46; stroke-linecap:butt; stroke-linejoin:round; stroke-width:4; stroke-opacity:1; fill:none" points="
  1130.97,766.846 1286.85,693.487 
  "/>
<polyline clip-path="url(#clip262)" style="stroke:#e26f46; stroke-linecap:butt; stroke-linejoin:round; stroke-width:4; stroke-opacity:1; fill:none" points="
  1246.61,692.53 1286.85,693.487 1261.94,725.103 
  "/>
<polyline clip-path="url(#clip262)" style="stroke:#e26f46; stroke-linecap:butt; stroke-linejoin:round; stroke-width:4; stroke-opacity:1; fill:none" points="
  1286.85,693.487 1130.97,766.846 
  "/>
<defs>
  <clipPath id="clip263">
    <rect x="2160" y="47" width="73" height="1440"/>
  </clipPath>
</defs>
<polyline clip-path="url(#clip263)" style="stroke:#ff66ff; stroke-linecap:butt; stroke-linejoin:round; stroke-width:4; stroke-opacity:1; fill:none" points="
  2160.76,2959.04 2232.76,2959.04 
  "/>
<polyline clip-path="url(#clip263)" style="stroke:#6c0000; stroke-linecap:butt; stroke-linejoin:round; stroke-width:4; stroke-opacity:1; fill:none" points="
  2160.76,2811.78 2232.76,2811.78 
  "/>
<polyline clip-path="url(#clip263)" style="stroke:#ff4444; stroke-linecap:butt; stroke-linejoin:round; stroke-width:4; stroke-opacity:1; fill:none" points="
  2160.76,2664.52 2232.76,2664.52 
  "/>
<polyline clip-path="url(#clip263)" style="stroke:#505000; stroke-linecap:butt; stroke-linejoin:round; stroke-width:4; stroke-opacity:1; fill:none" points="
  2160.76,2517.26 2232.76,2517.26 
  "/>
<polyline clip-path="url(#clip263)" style="stroke:#ffff21; stroke-linecap:butt; stroke-linejoin:round; stroke-width:4; stroke-opacity:1; fill:none" points="
  2160.76,2370.01 2232.76,2370.01 
  "/>
<polyline clip-path="url(#clip263)" style="stroke:#003b00; stroke-linecap:butt; stroke-linejoin:round; stroke-width:4; stroke-opacity:1; fill:none" points="
  2160.76,2222.75 2232.76,2222.75 
  "/>
<polyline clip-path="url(#clip263)" style="stroke:#08ff08; stroke-linecap:butt; stroke-linejoin:round; stroke-width:4; stroke-opacity:1; fill:none" points="
  2160.76,2075.49 2232.76,2075.49 
  "/>
<polyline clip-path="url(#clip263)" style="stroke:#e5ffe5; stroke-linecap:butt; stroke-linejoin:round; stroke-width:4; stroke-opacity:1; fill:none" points="
  2160.76,1928.23 2232.76,1928.23 
  "/>
<polyline clip-path="url(#clip263)" style="stroke:#00d5d5; stroke-linecap:butt; stroke-linejoin:round; stroke-width:4; stroke-opacity:1; fill:none" points="
  2160.76,1780.97 2232.76,1780.97 
  "/>
<polyline clip-path="url(#clip263)" style="stroke:#c3ffff; stroke-linecap:butt; stroke-linejoin:round; stroke-width:4; stroke-opacity:1; fill:none" points="
  2160.76,1633.71 2232.76,1633.71 
  "/>
<polyline clip-path="url(#clip263)" style="stroke:#000003; stroke-linecap:butt; stroke-linejoin:round; stroke-width:4; stroke-opacity:1; fill:none" points="
  2160.76,1486.45 2232.76,1486.45 
  "/>
<polyline clip-path="url(#clip263)" style="stroke:#170b3b; stroke-linecap:butt; stroke-linejoin:round; stroke-width:4; stroke-opacity:1; fill:none" points="
  2160.76,1339.19 2232.76,1339.19 
  "/>
<polyline clip-path="url(#clip263)" style="stroke:#430a68; stroke-linecap:butt; stroke-linejoin:round; stroke-width:4; stroke-opacity:1; fill:none" points="
  2160.76,1191.93 2232.76,1191.93 
  "/>
<polyline clip-path="url(#clip263)" style="stroke:#6d186e; stroke-linecap:butt; stroke-linejoin:round; stroke-width:4; stroke-opacity:1; fill:none" points="
  2160.76,1044.67 2232.76,1044.67 
  "/>
<polyline clip-path="url(#clip263)" style="stroke:#962666; stroke-linecap:butt; stroke-linejoin:round; stroke-width:4; stroke-opacity:1; fill:none" points="
  2160.76,897.41 2232.76,897.41 
  "/>
<polyline clip-path="url(#clip263)" style="stroke:#be3852; stroke-linecap:butt; stroke-linejoin:round; stroke-width:4; stroke-opacity:1; fill:none" points="
  2160.76,750.15 2232.76,750.15 
  "/>
<polyline clip-path="url(#clip263)" style="stroke:#e05634; stroke-linecap:butt; stroke-linejoin:round; stroke-width:4; stroke-opacity:1; fill:none" points="
  2160.76,602.89 2232.76,602.89 
  "/>
<polyline clip-path="url(#clip263)" style="stroke:#f57e14; stroke-linecap:butt; stroke-linejoin:round; stroke-width:4; stroke-opacity:1; fill:none" points="
  2160.76,455.631 2232.76,455.631 
  "/>
<polyline clip-path="url(#clip263)" style="stroke:#fbae12; stroke-linecap:butt; stroke-linejoin:round; stroke-width:4; stroke-opacity:1; fill:none" points="
  2160.76,308.371 2232.76,308.371 
  "/>
<polyline clip-path="url(#clip263)" style="stroke:#f3e056; stroke-linecap:butt; stroke-linejoin:round; stroke-width:4; stroke-opacity:1; fill:none" points="
  2160.76,161.112 2232.76,161.112 
  "/>
<polyline clip-path="url(#clip263)" style="stroke:#000000; stroke-linecap:butt; stroke-linejoin:round; stroke-width:4; stroke-opacity:1; fill:none" points="
  2160.76,13.852 2232.76,13.852 
  "/>
<polyline clip-path="url(#clip263)" style="stroke:#000000; stroke-linecap:butt; stroke-linejoin:round; stroke-width:4; stroke-opacity:1; fill:none" points="
  2160.76,-133.408 2232.76,-133.408 
  "/>
<polyline clip-path="url(#clip263)" style="stroke:#000000; stroke-linecap:butt; stroke-linejoin:round; stroke-width:4; stroke-opacity:1; fill:none" points="
  2160.76,-280.667 2232.76,-280.667 
  "/>
<polyline clip-path="url(#clip263)" style="stroke:#000000; stroke-linecap:butt; stroke-linejoin:round; stroke-width:4; stroke-opacity:1; fill:none" points="
  2160.76,-427.927 2232.76,-427.927 
  "/>
<polyline clip-path="url(#clip263)" style="stroke:#000c78; stroke-linecap:butt; stroke-linejoin:round; stroke-width:4; stroke-opacity:1; fill:none" points="
  2160.76,-575.186 2232.76,-575.186 
  "/>
<polyline clip-path="url(#clip263)" style="stroke:#000000; stroke-linecap:butt; stroke-linejoin:round; stroke-width:4; stroke-opacity:1; fill:none" points="
  2160.76,-722.446 2232.76,-722.446 
  "/>
<polyline clip-path="url(#clip263)" style="stroke:#000000; stroke-linecap:butt; stroke-linejoin:round; stroke-width:4; stroke-opacity:1; fill:none" points="
  2160.76,-869.705 2232.76,-869.705 
  "/>
<path clip-path="url(#clip260)" d="M2280.7 1468.62 Q2277.09 1468.62 2275.26 1472.18 Q2273.45 1475.72 2273.45 1482.85 Q2273.45 1489.96 2275.26 1493.53 Q2277.09 1497.07 2280.7 1497.07 Q2284.33 1497.07 2286.14 1493.53 Q2287.97 1489.96 2287.97 1482.85 Q2287.97 1475.72 2286.14 1472.18 Q2284.33 1468.62 2280.7 1468.62 M2280.7 1464.91 Q2286.51 1464.91 2289.57 1469.52 Q2292.64 1474.1 2292.64 1482.85 Q2292.64 1491.58 2289.57 1496.19 Q2286.51 1500.77 2280.7 1500.77 Q2274.89 1500.77 2271.81 1496.19 Q2268.76 1491.58 2268.76 1482.85 Q2268.76 1474.1 2271.81 1469.52 Q2274.89 1464.91 2280.7 1464.91 Z" fill="#000000" fill-rule="evenodd" fill-opacity="1" /><path clip-path="url(#clip260)" d="M2270.21 1318.28 L2288.57 1318.28 L2288.57 1322.21 L2274.5 1322.21 L2274.5 1330.69 Q2275.52 1330.34 2276.53 1330.18 Q2277.55 1329.99 2278.57 1329.99 Q2284.36 1329.99 2287.74 1333.16 Q2291.12 1336.33 2291.12 1341.75 Q2291.12 1347.33 2287.64 1350.43 Q2284.17 1353.51 2277.85 1353.51 Q2275.68 1353.51 2273.41 1353.14 Q2271.16 1352.77 2268.76 1352.03 L2268.76 1347.33 Q2270.84 1348.46 2273.06 1349.02 Q2275.28 1349.58 2277.76 1349.58 Q2281.77 1349.58 2284.1 1347.47 Q2286.44 1345.36 2286.44 1341.75 Q2286.44 1338.14 2284.1 1336.03 Q2281.77 1333.93 2277.76 1333.93 Q2275.89 1333.93 2274.01 1334.34 Q2272.16 1334.76 2270.21 1335.64 L2270.21 1318.28 Z" fill="#000000" fill-rule="evenodd" fill-opacity="1" /><path clip-path="url(#clip260)" d="M2269.43 1201.64 L2277.07 1201.64 L2277.07 1175.28 L2268.76 1176.95 L2268.76 1172.69 L2277.02 1171.02 L2281.7 1171.02 L2281.7 1201.64 L2289.33 1201.64 L2289.33 1205.58 L2269.43 1205.58 L2269.43 1201.64 Z" fill="#000000" fill-rule="evenodd" fill-opacity="1" /><path clip-path="url(#clip260)" d="M2308.78 1174.1 Q2305.17 1174.1 2303.34 1177.66 Q2301.53 1181.21 2301.53 1188.33 Q2301.53 1195.44 2303.34 1199.01 Q2305.17 1202.55 2308.78 1202.55 Q2312.41 1202.55 2314.22 1199.01 Q2316.05 1195.44 2316.05 1188.33 Q2316.05 1181.21 2314.22 1177.66 Q2312.41 1174.1 2308.78 1174.1 M2308.78 1170.39 Q2314.59 1170.39 2317.64 1175 Q2320.72 1179.58 2320.72 1188.33 Q2320.72 1197.06 2317.64 1201.67 Q2314.59 1206.25 2308.78 1206.25 Q2302.97 1206.25 2299.89 1201.67 Q2296.83 1197.06 2296.83 1188.33 Q2296.83 1179.58 2299.89 1175 Q2302.97 1170.39 2308.78 1170.39 Z" fill="#000000" fill-rule="evenodd" fill-opacity="1" /><path clip-path="url(#clip260)" d="M2269.43 1054.39 L2277.07 1054.39 L2277.07 1028.02 L2268.76 1029.69 L2268.76 1025.43 L2277.02 1023.76 L2281.7 1023.76 L2281.7 1054.39 L2289.33 1054.39 L2289.33 1058.32 L2269.43 1058.32 L2269.43 1054.39 Z" fill="#000000" fill-rule="evenodd" fill-opacity="1" /><path clip-path="url(#clip260)" d="M2298.83 1023.76 L2317.18 1023.76 L2317.18 1027.7 L2303.11 1027.7 L2303.11 1036.17 Q2304.13 1035.82 2305.14 1035.66 Q2306.16 1035.47 2307.18 1035.47 Q2312.97 1035.47 2316.35 1038.64 Q2319.73 1041.82 2319.73 1047.23 Q2319.73 1052.81 2316.26 1055.91 Q2312.78 1058.99 2306.46 1058.99 Q2304.29 1058.99 2302.02 1058.62 Q2299.77 1058.25 2297.37 1057.51 L2297.37 1052.81 Q2299.45 1053.95 2301.67 1054.5 Q2303.89 1055.06 2306.37 1055.06 Q2310.38 1055.06 2312.71 1052.95 Q2315.05 1050.84 2315.05 1047.23 Q2315.05 1043.62 2312.71 1041.51 Q2310.38 1039.41 2306.37 1039.41 Q2304.5 1039.41 2302.62 1039.83 Q2300.77 1040.24 2298.83 1041.12 L2298.83 1023.76 Z" fill="#000000" fill-rule="evenodd" fill-opacity="1" /><path clip-path="url(#clip260)" d="M2274.38 907.126 L2290.7 907.126 L2290.7 911.061 L2268.76 911.061 L2268.76 907.126 Q2271.42 904.371 2276 899.741 Q2280.61 895.089 2281.79 893.746 Q2284.03 891.223 2284.91 889.487 Q2285.82 887.728 2285.82 886.038 Q2285.82 883.283 2283.87 881.547 Q2281.95 879.811 2278.85 879.811 Q2276.65 879.811 2274.2 880.575 Q2271.77 881.339 2268.99 882.89 L2268.99 878.167 Q2271.81 877.033 2274.27 876.454 Q2276.72 875.876 2278.76 875.876 Q2284.13 875.876 2287.32 878.561 Q2290.52 881.246 2290.52 885.737 Q2290.52 887.866 2289.7 889.788 Q2288.92 891.686 2286.81 894.278 Q2286.23 894.95 2283.13 898.167 Q2280.03 901.362 2274.38 907.126 Z" fill="#000000" fill-rule="evenodd" fill-opacity="1" /><path clip-path="url(#clip260)" d="M2310.51 879.579 Q2306.9 879.579 2305.08 883.144 Q2303.27 886.686 2303.27 893.815 Q2303.27 900.922 2305.08 904.487 Q2306.9 908.028 2310.51 908.028 Q2314.15 908.028 2315.95 904.487 Q2317.78 900.922 2317.78 893.815 Q2317.78 886.686 2315.95 883.144 Q2314.15 879.579 2310.51 879.579 M2310.51 875.876 Q2316.33 875.876 2319.38 880.482 Q2322.46 885.066 2322.46 893.815 Q2322.46 902.542 2319.38 907.149 Q2316.33 911.732 2310.51 911.732 Q2304.7 911.732 2301.63 907.149 Q2298.57 902.542 2298.57 893.815 Q2298.57 885.066 2301.63 880.482 Q2304.7 875.876 2310.51 875.876 Z" fill="#000000" fill-rule="evenodd" fill-opacity="1" /><path clip-path="url(#clip260)" d="M2274.38 759.866 L2290.7 759.866 L2290.7 763.801 L2268.76 763.801 L2268.76 759.866 Q2271.42 757.111 2276 752.482 Q2280.61 747.829 2281.79 746.486 Q2284.03 743.963 2284.91 742.227 Q2285.82 740.468 2285.82 738.778 Q2285.82 736.024 2283.87 734.287 Q2281.95 732.551 2278.85 732.551 Q2276.65 732.551 2274.2 733.315 Q2271.77 734.079 2268.99 735.63 L2268.99 730.908 Q2271.81 729.774 2274.27 729.195 Q2276.72 728.616 2278.76 728.616 Q2284.13 728.616 2287.32 731.301 Q2290.52 733.987 2290.52 738.477 Q2290.52 740.607 2289.7 742.528 Q2288.92 744.426 2286.81 747.019 Q2286.23 747.69 2283.13 750.908 Q2280.03 754.102 2274.38 759.866 Z" fill="#000000" fill-rule="evenodd" fill-opacity="1" /><path clip-path="url(#clip260)" d="M2300.56 729.241 L2318.92 729.241 L2318.92 733.176 L2304.84 733.176 L2304.84 741.648 Q2305.86 741.301 2306.88 741.139 Q2307.9 740.954 2308.92 740.954 Q2314.7 740.954 2318.08 744.125 Q2321.46 747.297 2321.46 752.713 Q2321.46 758.292 2317.99 761.394 Q2314.52 764.472 2308.2 764.472 Q2306.02 764.472 2303.76 764.102 Q2301.51 763.732 2299.1 762.991 L2299.1 758.292 Q2301.19 759.426 2303.41 759.982 Q2305.63 760.537 2308.11 760.537 Q2312.11 760.537 2314.45 758.431 Q2316.79 756.324 2316.79 752.713 Q2316.79 749.102 2314.45 746.996 Q2312.11 744.889 2308.11 744.889 Q2306.23 744.889 2304.36 745.306 Q2302.51 745.723 2300.56 746.602 L2300.56 729.241 Z" fill="#000000" fill-rule="evenodd" fill-opacity="1" /><path clip-path="url(#clip260)" d="M2284.38 597.907 Q2287.74 598.625 2289.61 600.894 Q2291.51 603.162 2291.51 606.495 Q2291.51 611.611 2287.99 614.412 Q2284.47 617.213 2277.99 617.213 Q2275.82 617.213 2273.5 616.773 Q2271.21 616.356 2268.76 615.5 L2268.76 610.986 Q2270.7 612.12 2273.02 612.699 Q2275.33 613.278 2277.85 613.278 Q2282.25 613.278 2284.54 611.542 Q2286.86 609.805 2286.86 606.495 Q2286.86 603.44 2284.7 601.727 Q2282.58 599.991 2278.76 599.991 L2274.73 599.991 L2274.73 596.148 L2278.94 596.148 Q2282.39 596.148 2284.22 594.782 Q2286.05 593.394 2286.05 590.801 Q2286.05 588.139 2284.15 586.727 Q2282.27 585.292 2278.76 585.292 Q2276.83 585.292 2274.64 585.708 Q2272.44 586.125 2269.8 587.005 L2269.8 582.838 Q2272.46 582.097 2274.77 581.727 Q2277.11 581.357 2279.17 581.357 Q2284.5 581.357 2287.6 583.787 Q2290.7 586.195 2290.7 590.315 Q2290.7 593.185 2289.06 595.176 Q2287.41 597.144 2284.38 597.907 Z" fill="#000000" fill-rule="evenodd" fill-opacity="1" /><path clip-path="url(#clip260)" d="M2310.38 585.06 Q2306.76 585.06 2304.94 588.625 Q2303.13 592.167 2303.13 599.296 Q2303.13 606.403 2304.94 609.968 Q2306.76 613.509 2310.38 613.509 Q2314.01 613.509 2315.82 609.968 Q2317.64 606.403 2317.64 599.296 Q2317.64 592.167 2315.82 588.625 Q2314.01 585.06 2310.38 585.06 M2310.38 581.357 Q2316.19 581.357 2319.24 585.963 Q2322.32 590.546 2322.32 599.296 Q2322.32 608.023 2319.24 612.63 Q2316.19 617.213 2310.38 617.213 Q2304.57 617.213 2301.49 612.63 Q2298.43 608.023 2298.43 599.296 Q2298.43 590.546 2301.49 585.963 Q2304.57 581.357 2310.38 581.357 Z" fill="#000000" fill-rule="evenodd" fill-opacity="1" /><path clip-path="url(#clip260)" d="M2284.38 450.648 Q2287.74 451.365 2289.61 453.634 Q2291.51 455.902 2291.51 459.236 Q2291.51 464.351 2287.99 467.152 Q2284.47 469.953 2277.99 469.953 Q2275.82 469.953 2273.5 469.513 Q2271.21 469.097 2268.76 468.24 L2268.76 463.726 Q2270.7 464.861 2273.02 465.439 Q2275.33 466.018 2277.85 466.018 Q2282.25 466.018 2284.54 464.282 Q2286.86 462.546 2286.86 459.236 Q2286.86 456.18 2284.7 454.467 Q2282.58 452.731 2278.76 452.731 L2274.73 452.731 L2274.73 448.889 L2278.94 448.889 Q2282.39 448.889 2284.22 447.523 Q2286.05 446.134 2286.05 443.541 Q2286.05 440.879 2284.15 439.467 Q2282.27 438.032 2278.76 438.032 Q2276.83 438.032 2274.64 438.449 Q2272.44 438.865 2269.8 439.745 L2269.8 435.578 Q2272.46 434.838 2274.77 434.467 Q2277.11 434.097 2279.17 434.097 Q2284.5 434.097 2287.6 436.528 Q2290.7 438.935 2290.7 443.055 Q2290.7 445.926 2289.06 447.916 Q2287.41 449.884 2284.38 450.648 Z" fill="#000000" fill-rule="evenodd" fill-opacity="1" /><path clip-path="url(#clip260)" d="M2300.42 434.722 L2318.78 434.722 L2318.78 438.657 L2304.7 438.657 L2304.7 447.129 Q2305.72 446.782 2306.74 446.62 Q2307.76 446.435 2308.78 446.435 Q2314.57 446.435 2317.95 449.606 Q2321.33 452.777 2321.33 458.194 Q2321.33 463.773 2317.85 466.875 Q2314.38 469.953 2308.06 469.953 Q2305.89 469.953 2303.62 469.583 Q2301.37 469.213 2298.96 468.472 L2298.96 463.773 Q2301.05 464.907 2303.27 465.463 Q2305.49 466.018 2307.97 466.018 Q2311.97 466.018 2314.31 463.912 Q2316.65 461.805 2316.65 458.194 Q2316.65 454.583 2314.31 452.477 Q2311.97 450.37 2307.97 450.37 Q2306.09 450.37 2304.22 450.787 Q2302.37 451.203 2300.42 452.083 L2300.42 434.722 Z" fill="#000000" fill-rule="evenodd" fill-opacity="1" /><path clip-path="url(#clip260)" d="M2284.36 291.536 L2272.55 309.985 L2284.36 309.985 L2284.36 291.536 M2283.13 287.462 L2289.01 287.462 L2289.01 309.985 L2293.94 309.985 L2293.94 313.874 L2289.01 313.874 L2289.01 322.022 L2284.36 322.022 L2284.36 313.874 L2268.76 313.874 L2268.76 309.36 L2283.13 287.462 Z" fill="#000000" fill-rule="evenodd" fill-opacity="1" /><path clip-path="url(#clip260)" d="M2311.67 290.541 Q2308.06 290.541 2306.23 294.106 Q2304.43 297.648 2304.43 304.777 Q2304.43 311.884 2306.23 315.448 Q2308.06 318.99 2311.67 318.99 Q2315.31 318.99 2317.11 315.448 Q2318.94 311.884 2318.94 304.777 Q2318.94 297.648 2317.11 294.106 Q2315.31 290.541 2311.67 290.541 M2311.67 286.837 Q2317.48 286.837 2320.54 291.444 Q2323.62 296.027 2323.62 304.777 Q2323.62 313.504 2320.54 318.11 Q2317.48 322.694 2311.67 322.694 Q2305.86 322.694 2302.78 318.11 Q2299.73 313.504 2299.73 304.777 Q2299.73 296.027 2302.78 291.444 Q2305.86 286.837 2311.67 286.837 Z" fill="#000000" fill-rule="evenodd" fill-opacity="1" /><path clip-path="url(#clip260)" d="M2284.36 144.277 L2272.55 162.726 L2284.36 162.726 L2284.36 144.277 M2283.13 140.203 L2289.01 140.203 L2289.01 162.726 L2293.94 162.726 L2293.94 166.615 L2289.01 166.615 L2289.01 174.763 L2284.36 174.763 L2284.36 166.615 L2268.76 166.615 L2268.76 162.101 L2283.13 140.203 Z" fill="#000000" fill-rule="evenodd" fill-opacity="1" /><path clip-path="url(#clip260)" d="M2301.72 140.203 L2320.08 140.203 L2320.08 144.138 L2306 144.138 L2306 152.61 Q2307.02 152.263 2308.04 152.101 Q2309.06 151.916 2310.08 151.916 Q2315.86 151.916 2319.24 155.087 Q2322.62 158.258 2322.62 163.675 Q2322.62 169.254 2319.15 172.355 Q2315.68 175.434 2309.36 175.434 Q2307.18 175.434 2304.91 175.064 Q2302.67 174.693 2300.26 173.953 L2300.26 169.254 Q2302.34 170.388 2304.57 170.943 Q2306.79 171.499 2309.26 171.499 Q2313.27 171.499 2315.61 169.392 Q2317.95 167.286 2317.95 163.675 Q2317.95 160.064 2315.61 157.957 Q2313.27 155.851 2309.26 155.851 Q2307.39 155.851 2305.51 156.268 Q2303.66 156.684 2301.72 157.564 L2301.72 140.203 Z" fill="#000000" fill-rule="evenodd" fill-opacity="1" /><polyline clip-path="url(#clip260)" style="stroke:#000000; stroke-linecap:butt; stroke-linejoin:round; stroke-width:4; stroke-opacity:1; fill:none" points="
  2232.76,1486.45 2232.76,1486.45 2256.76,1486.45 2232.76,1486.45 2232.76,1339.19 2256.76,1339.19 2232.76,1339.19 2232.76,1191.93 2256.76,1191.93 2232.76,1191.93 
  2232.76,1044.67 2256.76,1044.67 2232.76,1044.67 2232.76,897.41 2256.76,897.41 2232.76,897.41 2232.76,750.15 2256.76,750.15 2232.76,750.15 2232.76,602.89 
  2256.76,602.89 2232.76,602.89 2232.76,455.631 2256.76,455.631 2232.76,455.631 2232.76,308.371 2256.76,308.371 2232.76,308.371 2232.76,161.112 2256.76,161.112 
  2232.76,161.112 2232.76,47.2441 
  "/>
</svg>
